<svg width="24" height="24" viewBox="0 0 24 24" fill="none" xmlns="http://www.w3.org/2000/svg">
<path fill-rule="evenodd" clip-rule="evenodd" d="M4.00004 4C4.55232 4 5.00004 4.44772 5.00004 5V6.20338C5.08079 6.32188 5.19475 6.48267 5.34052 6.6728C5.67284 7.10626 6.16435 7.68426 6.79771 8.26004C8.07623 9.42234 9.84611 10.5 12 10.5C14.154 10.5 15.9238 9.42234 17.2024 8.26004C17.8357 7.68426 18.3272 7.10626 18.6596 6.6728C18.8053 6.48267 18.9193 6.32189 19 6.20338V5C19 4.44772 19.4478 4 20 4C20.5523 4 21 4.44772 21 5V6.14926L22.7809 8.37534C23.1259 8.8066 23.056 9.4359 22.6247 9.78091C22.1935 10.1259 21.5642 10.056 21.2192 9.62473L21 9.35082V14.4273L21.0553 14.431C21.3725 14.4527 21.6268 14.4705 21.8019 14.483L22.0033 14.4976L22.0738 14.5027L22.0007 15.4914C22.0739 14.5027 22.0738 14.5027 22.0738 14.5027C22.6246 14.5435 23.0381 15.0231 22.9973 15.5739C22.9565 16.1247 22.4769 16.5381 21.9261 16.4973L21.8581 16.4923L21.6595 16.478C21.5014 16.4667 21.2774 16.4509 21 16.4319V19C21 19.5523 20.5523 20 20 20C19.4478 20 19 19.5523 19 19V16.3022C18.8081 16.2905 18.6102 16.2785 18.4072 16.2665C16.4002 16.1479 13.9214 16.0242 11.9915 16L11.9831 15.9999C10.0551 15.976 7.5766 16.0377 5.5693 16.1061C5.37465 16.1128 5.18458 16.1195 5.00004 16.1262V19C5.00004 19.5523 4.55232 20 4.00004 20C3.44775 20 3.00004 19.5523 3.00004 19V16.2056C2.71119 16.2181 2.47864 16.2286 2.31579 16.2362L2.1171 16.2455L2.04903 16.2488C1.4974 16.2758 1.02828 15.8506 1.00124 15.299C0.974198 14.7473 1.39946 14.2782 1.95108 14.2512L2.02175 14.2478L2.22324 14.2383C2.39846 14.2302 2.65285 14.2187 2.97019 14.205L3.00004 14.2037V9.35082L2.78091 9.62473C2.4359 10.056 1.8066 10.1259 1.37534 9.78091C0.94408 9.4359 0.874158 8.8066 1.21917 8.37534L3.00004 6.14925V5C3.00004 4.44772 3.44775 4 4.00004 4ZM15 14.0886C14.3186 14.0598 13.6423 14.0357 13 14.0193V12.4409C13.7117 12.3563 14.3792 12.1852 15 11.9554V14.0886ZM17 14.1844C17.5279 14.2124 18.0412 14.2414 18.5252 14.27C18.6868 14.2796 18.8453 14.2891 19 14.2985V9.30923C18.8572 9.45161 18.7063 9.59572 18.5477 9.73992C18.1005 10.1464 17.5833 10.5608 17 10.9406V14.1844ZM9.00004 11.9554C9.62083 12.1852 10.2884 12.3563 11 12.4409V13.9947C10.3575 13.9953 9.68124 14.0026 9.00004 14.0145V11.9554ZM7.00004 14.0606C6.48144 14.0752 5.97721 14.0911 5.50116 14.1073C5.3304 14.1131 5.16315 14.119 5.00004 14.1249V9.30923C5.14292 9.45161 5.29374 9.59572 5.45237 9.73992C5.89953 10.1464 6.41676 10.5608 7.00004 10.9406V14.0606Z" fill="#FFB600"/>
</svg>
