<svg width="24" height="24" viewBox="0 0 24 24" fill="none" xmlns="http://www.w3.org/2000/svg">
<path fill-rule="evenodd" clip-rule="evenodd" d="M11.3504 1.5651C11.7221 0.77396 12.9103 0.813517 13.2004 1.68377L13.2415 1.78964L13.3133 1.94629L13.4183 2.15276L13.5592 2.40809L13.7924 2.79807C14.2574 3.54251 14.8985 4.39053 15.745 5.33104C16.0313 5.64924 16.3758 5.99144 16.7722 6.35335C17.2868 6.82325 17.8811 7.31926 18.539 7.83271C19.4123 8.51423 20.3511 9.191 21.2903 9.83075L21.987 10.2981L22.5357 10.6545C23.383 11.1897 23.0039 12.5 22.0017 12.5H18.501V14.5H20.0017C20.5145 14.5 20.9372 14.886 20.9949 15.3834L21.0017 15.5V22C21.0017 22.5523 20.554 23 20.0017 23H4.00167C3.44939 23 3.00167 22.5523 3.00167 22V15.5C3.00167 14.9477 3.44939 14.5 4.00167 14.5H5.501V12.5H2.00167C1.01565 12.5 0.643936 11.2431 1.40832 10.6941L1.50553 10.6318L2.55088 10.0076L3.38985 9.48316C4.17052 8.98607 4.94224 8.46836 5.67017 7.94526C6.44762 7.38658 7.13863 6.84731 7.71926 6.33926C8.12854 5.98114 8.47727 5.64337 8.75838 5.33104C9.69888 4.28603 10.3859 3.3552 10.8595 2.55377L10.9442 2.40809L11.085 2.15276L11.19 1.94629L11.2618 1.78964L11.3504 1.5651ZM12.0509 4.42022L12.2517 4.123L12.2879 4.17881C12.7623 4.88928 13.408 5.7241 14.2584 6.66896C14.5919 7.03954 14.9818 7.42692 15.4236 7.83032C15.9796 8.33794 16.6125 8.86622 17.3086 9.40941L18.0023 9.94023L18.356 10.2034L18.7627 10.5H5.48867L6.11346 10.0787C6.35809 9.91003 6.59971 9.74013 6.8373 9.56939C7.66302 8.97602 8.40282 8.39868 9.03627 7.84441C9.50163 7.43722 9.90617 7.0454 10.245 6.66896C11.0009 5.82908 11.595 5.07615 12.0509 4.42022Z" fill="#FFB600"/>
</svg>
