<svg xmlns="http://www.w3.org/2000/svg" xmlns:xlink="http://www.w3.org/1999/xlink" width="1920" zoomAndPan="magnify" viewBox="0 0 1440 809.999993" height="1080" preserveAspectRatio="xMidYMid meet" version="1.0"><defs><g/><clipPath id="169d448468"><path d="M 653.777344 410.074219 L 961.554688 410.074219 L 961.554688 594.089844 L 653.777344 594.089844 Z M 653.777344 410.074219 " clip-rule="nonzero"/></clipPath><clipPath id="d3d7adbda9"><path d="M 452.835938 318.34375 L 965.835938 318.34375 L 965.835938 697.613281 L 452.835938 697.613281 Z M 452.835938 318.34375 " clip-rule="nonzero"/></clipPath><clipPath id="75411c5909"><path d="M 970.410156 330.480469 L 970.410156 604.664062 C 970.410156 611.890625 965.730469 618.285156 958.839844 620.464844 L 722.292969 695.4375 C 714.765625 697.820312 706.683594 697.820312 699.15625 695.4375 L 462.613281 620.464844 C 455.726562 618.285156 451.042969 611.890625 451.042969 604.664062 L 451.042969 330.480469 C 451.042969 323.777344 456.476562 318.34375 463.179688 318.34375 L 958.273438 318.34375 C 964.972656 318.34375 970.410156 323.777344 970.410156 330.480469 Z M 970.410156 330.480469 " clip-rule="nonzero"/></clipPath><clipPath id="c0de89d181"><path d="M 452.835938 318.34375 L 965.835938 318.34375 L 965.835938 697.679688 L 452.835938 697.679688 Z M 452.835938 318.34375 " clip-rule="nonzero"/></clipPath><clipPath id="038d0b1f63"><path d="M 970.394531 330.480469 L 970.394531 604.652344 C 970.394531 611.878906 965.714844 618.269531 958.828125 620.457031 L 722.289062 695.421875 C 714.765625 697.808594 706.683594 697.808594 699.152344 695.421875 L 462.617188 620.457031 C 455.734375 618.269531 451.050781 611.878906 451.050781 604.652344 L 451.050781 330.480469 C 451.050781 323.777344 456.484375 318.34375 463.183594 318.34375 L 958.257812 318.34375 C 964.964844 318.34375 970.394531 323.777344 970.394531 330.480469 Z M 970.394531 330.480469 " clip-rule="nonzero"/></clipPath><clipPath id="490b434956"><path d="M 452.835938 29.144531 L 965.835938 29.144531 L 965.835938 592 L 452.835938 592 Z M 452.835938 29.144531 " clip-rule="nonzero"/></clipPath><clipPath id="cc28d5cd0d"><path d="M 623.769531 42.351562 C 650.238281 34.378906 680.507812 29.144531 710.132812 29.144531 C 739.761719 29.144531 768.265625 33.632812 794.539062 41.601562 C 795.097656 41.851562 795.65625 41.851562 796.214844 42.101562 C 894.875 73.988281 967.546875 158.1875 968.941406 256.585938 L 968.941406 591.894531 L 451.042969 591.894531 L 451.042969 256.835938 C 452.441406 157.691406 523.988281 73.488281 623.769531 42.351562 Z M 623.769531 42.351562 " clip-rule="nonzero"/></clipPath><clipPath id="1126959400"><path d="M 452.835938 29.144531 L 965.835938 29.144531 L 965.835938 591.878906 L 452.835938 591.878906 Z M 452.835938 29.144531 " clip-rule="nonzero"/></clipPath><clipPath id="823667d409"><path d="M 623.769531 42.351562 C 650.234375 34.378906 680.503906 29.144531 710.128906 29.144531 C 739.757812 29.144531 768.265625 33.632812 794.535156 41.601562 C 795.09375 41.851562 795.652344 41.851562 796.210938 42.101562 C 894.871094 73.988281 967.535156 158.183594 968.929688 256.582031 L 968.929688 591.878906 L 451.046875 591.878906 L 451.046875 256.828125 C 452.445312 157.6875 523.992188 73.488281 623.769531 42.351562 Z M 623.769531 42.351562 " clip-rule="nonzero"/></clipPath><clipPath id="862faea36c"><path d="M 452.835938 259.832031 L 960 259.832031 L 960 501.683594 L 452.835938 501.683594 Z M 452.835938 259.832031 " clip-rule="nonzero"/></clipPath><clipPath id="7bd4029fbf"><path d="M 412.585938 403.339844 L 936.769531 227.429688 L 989.710938 385.230469 L 465.53125 561.140625 Z M 412.585938 403.339844 " clip-rule="nonzero"/></clipPath><clipPath id="d25c109a61"><path d="M 936.414062 227.304688 L 335.988281 428.800781 L 389.285156 587.664062 L 989.710938 386.167969 Z M 936.414062 227.304688 " clip-rule="nonzero"/></clipPath><clipPath id="b9573223f0"><path d="M 936.414062 227.304688 L 335.988281 428.800781 L 389.285156 587.664062 L 989.710938 386.167969 Z M 936.414062 227.304688 " clip-rule="nonzero"/></clipPath><clipPath id="220587bc8c"><path d="M 452.835938 267.925781 L 963.652344 267.925781 L 963.652344 509.773438 L 452.835938 509.773438 Z M 452.835938 267.925781 " clip-rule="nonzero"/></clipPath><clipPath id="820effe2ec"><path d="M 416.753906 411.433594 L 940.9375 235.523438 L 993.878906 393.324219 L 469.699219 569.234375 Z M 416.753906 411.433594 " clip-rule="nonzero"/></clipPath><clipPath id="aa471ec18e"><path d="M 940.582031 235.394531 L 340.15625 436.894531 L 393.457031 595.757812 L 993.878906 394.261719 Z M 940.582031 235.394531 " clip-rule="nonzero"/></clipPath><clipPath id="6b85fa9f52"><path d="M 940.582031 235.394531 L 340.15625 436.894531 L 393.457031 595.757812 L 993.878906 394.261719 Z M 940.582031 235.394531 " clip-rule="nonzero"/></clipPath><clipPath id="3dd30a58f8"><path d="M 452.835938 249.042969 L 960 249.042969 L 960 490.894531 L 452.835938 490.894531 Z M 452.835938 249.042969 " clip-rule="nonzero"/></clipPath><clipPath id="5a18e6717c"><path d="M 412.585938 392.605469 L 936.769531 216.695312 L 989.710938 374.5 L 465.53125 550.410156 Z M 412.585938 392.605469 " clip-rule="nonzero"/></clipPath><clipPath id="c7eed52602"><path d="M 936.414062 216.570312 L 335.988281 418.066406 L 389.285156 576.929688 L 989.710938 375.433594 Z M 936.414062 216.570312 " clip-rule="nonzero"/></clipPath><clipPath id="b620f184a6"><path d="M 936.414062 216.570312 L 335.988281 418.066406 L 389.285156 576.929688 L 989.710938 375.433594 Z M 936.414062 216.570312 " clip-rule="nonzero"/></clipPath><clipPath id="e104a3c69f"><path d="M 452.835938 257.136719 L 963.652344 257.136719 L 963.652344 498.984375 L 452.835938 498.984375 Z M 452.835938 257.136719 " clip-rule="nonzero"/></clipPath><clipPath id="16fd6d3864"><path d="M 416.753906 400.695312 L 940.9375 224.785156 L 993.878906 382.589844 L 469.699219 558.5 Z M 416.753906 400.695312 " clip-rule="nonzero"/></clipPath><clipPath id="b9cf86ac03"><path d="M 940.582031 224.664062 L 340.15625 426.15625 L 393.457031 585.023438 L 993.878906 383.523438 Z M 940.582031 224.664062 " clip-rule="nonzero"/></clipPath><clipPath id="c29df20d6d"><path d="M 940.582031 224.664062 L 340.15625 426.15625 L 393.457031 585.023438 L 993.878906 383.523438 Z M 940.582031 224.664062 " clip-rule="nonzero"/></clipPath><clipPath id="130ec2a7cc"><path d="M 452.835938 241 L 964 241 L 964 483.703125 L 452.835938 483.703125 Z M 452.835938 241 " clip-rule="nonzero"/></clipPath><clipPath id="dc81fe7fe6"><path d="M 417.367188 384.953125 L 941.546875 209.042969 L 994.492188 366.847656 L 470.3125 542.757812 Z M 417.367188 384.953125 " clip-rule="nonzero"/></clipPath><clipPath id="98208c8e49"><path d="M 941.195312 208.917969 L 340.769531 410.417969 L 394.066406 569.277344 L 994.492188 367.78125 Z M 941.195312 208.917969 " clip-rule="nonzero"/></clipPath><clipPath id="9252a6a8c2"><path d="M 941.195312 208.917969 L 340.769531 410.417969 L 394.066406 569.277344 L 994.492188 367.78125 Z M 941.195312 208.917969 " clip-rule="nonzero"/></clipPath><clipPath id="52eb65b9d6"><path d="M 452.835938 249.042969 L 965.835938 249.042969 L 965.835938 491.792969 L 452.835938 491.792969 Z M 452.835938 249.042969 " clip-rule="nonzero"/></clipPath><clipPath id="88caae1b76"><path d="M 421.535156 393.042969 L 945.714844 217.132812 L 998.660156 374.9375 L 474.480469 550.847656 Z M 421.535156 393.042969 " clip-rule="nonzero"/></clipPath><clipPath id="986859c68a"><path d="M 945.363281 217.011719 L 344.9375 418.507812 L 398.234375 577.371094 L 998.660156 375.871094 Z M 945.363281 217.011719 " clip-rule="nonzero"/></clipPath><clipPath id="ccbe7ccf6f"><path d="M 945.363281 217.011719 L 344.9375 418.507812 L 398.234375 577.371094 L 998.660156 375.871094 Z M 945.363281 217.011719 " clip-rule="nonzero"/></clipPath><clipPath id="7747f869fd"><path d="M 452.835938 230.164062 L 964 230.164062 L 964 472.914062 L 452.835938 472.914062 Z M 452.835938 230.164062 " clip-rule="nonzero"/></clipPath><clipPath id="ee9226bb19"><path d="M 417.367188 374.21875 L 941.546875 198.308594 L 994.492188 356.113281 L 470.3125 532.023438 Z M 417.367188 374.21875 " clip-rule="nonzero"/></clipPath><clipPath id="0e5780c349"><path d="M 941.195312 198.183594 L 340.769531 399.679688 L 394.066406 558.542969 L 994.492188 357.046875 Z M 941.195312 198.183594 " clip-rule="nonzero"/></clipPath><clipPath id="d1bf5d7151"><path d="M 941.195312 198.183594 L 340.769531 399.679688 L 394.066406 558.542969 L 994.492188 357.046875 Z M 941.195312 198.183594 " clip-rule="nonzero"/></clipPath><clipPath id="261cc733c9"><path d="M 452.835938 238.253906 L 965.835938 238.253906 L 965.835938 481 L 452.835938 481 Z M 452.835938 238.253906 " clip-rule="nonzero"/></clipPath><clipPath id="826be43ebf"><path d="M 421.535156 382.308594 L 945.714844 206.402344 L 998.660156 364.207031 L 474.480469 540.117188 Z M 421.535156 382.308594 " clip-rule="nonzero"/></clipPath><clipPath id="d7248085d7"><path d="M 945.363281 206.273438 L 344.9375 407.773438 L 398.234375 566.632812 L 998.660156 365.140625 Z M 945.363281 206.273438 " clip-rule="nonzero"/></clipPath><clipPath id="e09fdd84b7"><path d="M 945.363281 206.273438 L 344.9375 407.773438 L 398.234375 566.632812 L 998.660156 365.140625 Z M 945.363281 206.273438 " clip-rule="nonzero"/></clipPath><clipPath id="42099359cb"><path d="M 452.835938 301.191406 L 960 301.191406 L 960 543 L 452.835938 543 Z M 452.835938 301.191406 " clip-rule="nonzero"/></clipPath><clipPath id="81a117c4f6"><path d="M 412.585938 444.757812 L 936.769531 268.847656 L 989.710938 426.652344 L 465.53125 602.5625 Z M 412.585938 444.757812 " clip-rule="nonzero"/></clipPath><clipPath id="b37ce6178b"><path d="M 936.414062 268.726562 L 335.988281 470.21875 L 389.285156 629.085938 L 989.710938 427.585938 Z M 936.414062 268.726562 " clip-rule="nonzero"/></clipPath><clipPath id="440aa96273"><path d="M 936.414062 268.726562 L 335.988281 470.21875 L 389.285156 629.085938 L 989.710938 427.585938 Z M 936.414062 268.726562 " clip-rule="nonzero"/></clipPath><clipPath id="f376662497"><path d="M 452.835938 309.28125 L 963.652344 309.28125 L 963.652344 551 L 452.835938 551 Z M 452.835938 309.28125 " clip-rule="nonzero"/></clipPath><clipPath id="a6b8d692c4"><path d="M 416.753906 452.847656 L 940.9375 276.9375 L 993.878906 434.746094 L 469.699219 610.652344 Z M 416.753906 452.847656 " clip-rule="nonzero"/></clipPath><clipPath id="a97c61ae05"><path d="M 940.582031 276.816406 L 340.15625 478.3125 L 393.457031 637.175781 L 993.878906 435.679688 Z M 940.582031 276.816406 " clip-rule="nonzero"/></clipPath><clipPath id="76af3ebf94"><path d="M 940.582031 276.816406 L 340.15625 478.3125 L 393.457031 637.175781 L 993.878906 435.679688 Z M 940.582031 276.816406 " clip-rule="nonzero"/></clipPath><clipPath id="acb722dc31"><path d="M 452.835938 290.402344 L 960 290.402344 L 960 532.25 L 452.835938 532.25 Z M 452.835938 290.402344 " clip-rule="nonzero"/></clipPath><clipPath id="1a438fae7a"><path d="M 412.585938 434.023438 L 936.769531 258.113281 L 989.710938 415.917969 L 465.53125 591.828125 Z M 412.585938 434.023438 " clip-rule="nonzero"/></clipPath><clipPath id="1946980c0b"><path d="M 936.414062 257.988281 L 335.988281 459.488281 L 389.285156 618.347656 L 989.710938 416.855469 Z M 936.414062 257.988281 " clip-rule="nonzero"/></clipPath><clipPath id="4955f22891"><path d="M 936.414062 257.988281 L 335.988281 459.488281 L 389.285156 618.347656 L 989.710938 416.855469 Z M 936.414062 257.988281 " clip-rule="nonzero"/></clipPath><clipPath id="feeae91726"><path d="M 452.835938 298.492188 L 963.652344 298.492188 L 963.652344 540.34375 L 452.835938 540.34375 Z M 452.835938 298.492188 " clip-rule="nonzero"/></clipPath><clipPath id="fb7ad9c76e"><path d="M 416.753906 442.117188 L 940.9375 266.207031 L 993.878906 424.007812 L 469.699219 599.921875 Z M 416.753906 442.117188 " clip-rule="nonzero"/></clipPath><clipPath id="0e214ed95b"><path d="M 940.582031 266.082031 L 340.15625 467.578125 L 393.457031 626.441406 L 993.878906 424.945312 Z M 940.582031 266.082031 " clip-rule="nonzero"/></clipPath><clipPath id="9f876d7218"><path d="M 940.582031 266.082031 L 340.15625 467.578125 L 393.457031 626.441406 L 993.878906 424.945312 Z M 940.582031 266.082031 " clip-rule="nonzero"/></clipPath><clipPath id="8de7fcee8d"><path d="M 452.835938 282.308594 L 964 282.308594 L 964 525 L 452.835938 525 Z M 452.835938 282.308594 " clip-rule="nonzero"/></clipPath><clipPath id="f00c63c864"><path d="M 417.367188 426.371094 L 941.546875 250.460938 L 994.492188 408.265625 L 470.3125 584.175781 Z M 417.367188 426.371094 " clip-rule="nonzero"/></clipPath><clipPath id="86dfcf74fb"><path d="M 941.195312 250.339844 L 340.769531 451.832031 L 394.066406 610.699219 L 994.492188 409.203125 Z M 941.195312 250.339844 " clip-rule="nonzero"/></clipPath><clipPath id="2635354234"><path d="M 941.195312 250.339844 L 340.769531 451.832031 L 394.066406 610.699219 L 994.492188 409.203125 Z M 941.195312 250.339844 " clip-rule="nonzero"/></clipPath><clipPath id="1208b2b5f8"><path d="M 452.835938 290.402344 L 965.835938 290.402344 L 965.835938 533 L 452.835938 533 Z M 452.835938 290.402344 " clip-rule="nonzero"/></clipPath><clipPath id="aef946b2c1"><path d="M 421.535156 434.464844 L 945.714844 258.554688 L 998.660156 416.359375 L 474.480469 592.269531 Z M 421.535156 434.464844 " clip-rule="nonzero"/></clipPath><clipPath id="6fba8042e4"><path d="M 945.363281 258.429688 L 344.9375 459.925781 L 398.234375 618.792969 L 998.660156 417.292969 Z M 945.363281 258.429688 " clip-rule="nonzero"/></clipPath><clipPath id="8d65e7b3b8"><path d="M 945.363281 258.429688 L 344.9375 459.925781 L 398.234375 618.792969 L 998.660156 417.292969 Z M 945.363281 258.429688 " clip-rule="nonzero"/></clipPath><clipPath id="24881f992b"><path d="M 452.835938 272 L 964 272 L 964 514 L 452.835938 514 Z M 452.835938 272 " clip-rule="nonzero"/></clipPath><clipPath id="f05239bfda"><path d="M 417.367188 415.640625 L 941.546875 239.726562 L 994.492188 397.53125 L 470.3125 573.441406 Z M 417.367188 415.640625 " clip-rule="nonzero"/></clipPath><clipPath id="ac2784c653"><path d="M 941.195312 239.601562 L 340.769531 441.101562 L 394.066406 599.964844 L 994.492188 398.46875 Z M 941.195312 239.601562 " clip-rule="nonzero"/></clipPath><clipPath id="7d2cf1f2ad"><path d="M 941.195312 239.601562 L 340.769531 441.101562 L 394.066406 599.964844 L 994.492188 398.46875 Z M 941.195312 239.601562 " clip-rule="nonzero"/></clipPath><clipPath id="234425d2b0"><path d="M 452.835938 280 L 965.835938 280 L 965.835938 522 L 452.835938 522 Z M 452.835938 280 " clip-rule="nonzero"/></clipPath><clipPath id="a1bdfc8b29"><path d="M 421.535156 423.730469 L 945.714844 247.816406 L 998.660156 405.621094 L 474.480469 581.53125 Z M 421.535156 423.730469 " clip-rule="nonzero"/></clipPath><clipPath id="cb309eb302"><path d="M 945.363281 247.695312 L 344.9375 449.191406 L 398.234375 608.054688 L 998.660156 406.5625 Z M 945.363281 247.695312 " clip-rule="nonzero"/></clipPath><clipPath id="1e5f280d04"><path d="M 945.363281 247.695312 L 344.9375 449.191406 L 398.234375 608.054688 L 998.660156 406.5625 Z M 945.363281 247.695312 " clip-rule="nonzero"/></clipPath><clipPath id="71383ce8cb"><path d="M 452.835938 336.253906 L 960 336.253906 L 960 578.105469 L 452.835938 578.105469 Z M 452.835938 336.253906 " clip-rule="nonzero"/></clipPath><clipPath id="6935202fa0"><path d="M 412.585938 479.980469 L 936.769531 304.070312 L 989.710938 461.875 L 465.53125 637.785156 Z M 412.585938 479.980469 " clip-rule="nonzero"/></clipPath><clipPath id="c3d4b82c70"><path d="M 936.414062 303.945312 L 335.988281 505.441406 L 389.285156 664.304688 L 989.710938 462.808594 Z M 936.414062 303.945312 " clip-rule="nonzero"/></clipPath><clipPath id="5cd660080d"><path d="M 936.414062 303.945312 L 335.988281 505.441406 L 389.285156 664.304688 L 989.710938 462.808594 Z M 936.414062 303.945312 " clip-rule="nonzero"/></clipPath><clipPath id="8ee772ea69"><path d="M 452.835938 344.34375 L 963.652344 344.34375 L 963.652344 586.195312 L 452.835938 586.195312 Z M 452.835938 344.34375 " clip-rule="nonzero"/></clipPath><clipPath id="a9ecd876e9"><path d="M 416.753906 488.070312 L 940.9375 312.160156 L 993.878906 469.964844 L 469.699219 645.875 Z M 416.753906 488.070312 " clip-rule="nonzero"/></clipPath><clipPath id="c2df39248d"><path d="M 940.582031 312.039062 L 340.15625 513.53125 L 393.457031 672.394531 L 993.878906 470.902344 Z M 940.582031 312.039062 " clip-rule="nonzero"/></clipPath><clipPath id="eed5a65cf8"><path d="M 940.582031 312.039062 L 340.15625 513.53125 L 393.457031 672.394531 L 993.878906 470.902344 Z M 940.582031 312.039062 " clip-rule="nonzero"/></clipPath><clipPath id="6714a9bffd"><path d="M 452.835938 325.464844 L 960 325.464844 L 960 567.316406 L 452.835938 567.316406 Z M 452.835938 325.464844 " clip-rule="nonzero"/></clipPath><clipPath id="8e693cc00e"><path d="M 412.585938 469.242188 L 936.769531 293.332031 L 989.710938 451.136719 L 465.53125 627.046875 Z M 412.585938 469.242188 " clip-rule="nonzero"/></clipPath><clipPath id="c19e00cdb2"><path d="M 936.414062 293.210938 L 335.988281 494.707031 L 389.285156 653.570312 L 989.710938 452.074219 Z M 936.414062 293.210938 " clip-rule="nonzero"/></clipPath><clipPath id="4f9736aad6"><path d="M 936.414062 293.210938 L 335.988281 494.707031 L 389.285156 653.570312 L 989.710938 452.074219 Z M 936.414062 293.210938 " clip-rule="nonzero"/></clipPath><clipPath id="527b1330e8"><path d="M 452.835938 333.554688 L 963.652344 333.554688 L 963.652344 575.40625 L 452.835938 575.40625 Z M 452.835938 333.554688 " clip-rule="nonzero"/></clipPath><clipPath id="1e47a1072a"><path d="M 416.753906 477.335938 L 940.9375 301.425781 L 993.878906 459.230469 L 469.699219 635.140625 Z M 416.753906 477.335938 " clip-rule="nonzero"/></clipPath><clipPath id="32d9a7eacd"><path d="M 940.582031 301.300781 L 340.15625 502.800781 L 393.457031 661.664062 L 993.878906 460.164062 Z M 940.582031 301.300781 " clip-rule="nonzero"/></clipPath><clipPath id="93344ef8bb"><path d="M 940.582031 301.300781 L 340.15625 502.800781 L 393.457031 661.664062 L 993.878906 460.164062 Z M 940.582031 301.300781 " clip-rule="nonzero"/></clipPath><clipPath id="04dfa34576"><path d="M 452.835938 318 L 964 318 L 964 560 L 452.835938 560 Z M 452.835938 318 " clip-rule="nonzero"/></clipPath><clipPath id="01381b23c2"><path d="M 417.367188 461.59375 L 941.546875 285.683594 L 994.492188 443.484375 L 470.3125 619.398438 Z M 417.367188 461.59375 " clip-rule="nonzero"/></clipPath><clipPath id="f7ea911430"><path d="M 941.195312 285.558594 L 340.769531 487.054688 L 394.066406 645.917969 L 994.492188 444.421875 Z M 941.195312 285.558594 " clip-rule="nonzero"/></clipPath><clipPath id="6730fbc331"><path d="M 941.195312 285.558594 L 340.769531 487.054688 L 394.066406 645.917969 L 994.492188 444.421875 Z M 941.195312 285.558594 " clip-rule="nonzero"/></clipPath><clipPath id="c8abeb3e65"><path d="M 452.835938 326 L 965.835938 326 L 965.835938 568 L 452.835938 568 Z M 452.835938 326 " clip-rule="nonzero"/></clipPath><clipPath id="845e70cfd9"><path d="M 421.535156 469.683594 L 945.714844 293.777344 L 998.660156 451.578125 L 474.480469 627.492188 Z M 421.535156 469.683594 " clip-rule="nonzero"/></clipPath><clipPath id="402d37bd00"><path d="M 945.363281 293.648438 L 344.9375 495.148438 L 398.234375 654.007812 L 998.660156 452.515625 Z M 945.363281 293.648438 " clip-rule="nonzero"/></clipPath><clipPath id="9663ee9d2a"><path d="M 945.363281 293.648438 L 344.9375 495.148438 L 398.234375 654.007812 L 998.660156 452.515625 Z M 945.363281 293.648438 " clip-rule="nonzero"/></clipPath><clipPath id="b292313d07"><path d="M 452.835938 307 L 964 307 L 964 549 L 452.835938 549 Z M 452.835938 307 " clip-rule="nonzero"/></clipPath><clipPath id="6d546f1c34"><path d="M 417.367188 450.859375 L 941.546875 274.949219 L 994.492188 432.753906 L 470.3125 608.664062 Z M 417.367188 450.859375 " clip-rule="nonzero"/></clipPath><clipPath id="63cd354dc4"><path d="M 941.195312 274.824219 L 340.769531 476.320312 L 394.066406 635.183594 L 994.492188 433.6875 Z M 941.195312 274.824219 " clip-rule="nonzero"/></clipPath><clipPath id="95a97d4043"><path d="M 941.195312 274.824219 L 340.769531 476.320312 L 394.066406 635.183594 L 994.492188 433.6875 Z M 941.195312 274.824219 " clip-rule="nonzero"/></clipPath><clipPath id="004dad0b16"><path d="M 452.835938 315 L 965.835938 315 L 965.835938 557.425781 L 452.835938 557.425781 Z M 452.835938 315 " clip-rule="nonzero"/></clipPath><clipPath id="d731a67b1b"><path d="M 421.535156 458.949219 L 945.714844 283.039062 L 998.660156 440.84375 L 474.480469 616.753906 Z M 421.535156 458.949219 " clip-rule="nonzero"/></clipPath><clipPath id="e359068ecc"><path d="M 945.363281 282.917969 L 344.9375 484.410156 L 398.234375 643.277344 L 998.660156 441.777344 Z M 945.363281 282.917969 " clip-rule="nonzero"/></clipPath><clipPath id="9b496c428f"><path d="M 945.363281 282.917969 L 344.9375 484.410156 L 398.234375 643.277344 L 998.660156 441.777344 Z M 945.363281 282.917969 " clip-rule="nonzero"/></clipPath><clipPath id="2adba9b14a"><path d="M 452.835938 360.527344 L 960 360.527344 L 960 602.378906 L 452.835938 602.378906 Z M 452.835938 360.527344 " clip-rule="nonzero"/></clipPath><clipPath id="9c42eb8a61"><path d="M 412.585938 504.113281 L 936.769531 328.203125 L 989.710938 486.007812 L 465.53125 661.917969 Z M 412.585938 504.113281 " clip-rule="nonzero"/></clipPath><clipPath id="a09112035b"><path d="M 936.414062 328.082031 L 335.988281 529.574219 L 389.285156 688.441406 L 989.710938 486.945312 Z M 936.414062 328.082031 " clip-rule="nonzero"/></clipPath><clipPath id="0e9d5a0a0e"><path d="M 936.414062 328.082031 L 335.988281 529.574219 L 389.285156 688.441406 L 989.710938 486.945312 Z M 936.414062 328.082031 " clip-rule="nonzero"/></clipPath><clipPath id="e7aeeab49f"><path d="M 452.835938 368.621094 L 963.652344 368.621094 L 963.652344 610.472656 L 452.835938 610.472656 Z M 452.835938 368.621094 " clip-rule="nonzero"/></clipPath><clipPath id="eb879059e1"><path d="M 416.753906 512.207031 L 940.9375 336.296875 L 993.878906 494.101562 L 469.699219 670.011719 Z M 416.753906 512.207031 " clip-rule="nonzero"/></clipPath><clipPath id="01f1a8e72f"><path d="M 940.582031 336.171875 L 340.15625 537.667969 L 393.457031 696.53125 L 993.878906 495.035156 Z M 940.582031 336.171875 " clip-rule="nonzero"/></clipPath><clipPath id="771056c2b1"><path d="M 940.582031 336.171875 L 340.15625 537.667969 L 393.457031 696.53125 L 993.878906 495.035156 Z M 940.582031 336.171875 " clip-rule="nonzero"/></clipPath><clipPath id="8c247b99de"><path d="M 452.835938 349.738281 L 960 349.738281 L 960 591.589844 L 452.835938 591.589844 Z M 452.835938 349.738281 " clip-rule="nonzero"/></clipPath><clipPath id="527c0ce716"><path d="M 412.585938 493.378906 L 936.769531 317.46875 L 989.710938 475.273438 L 465.53125 651.183594 Z M 412.585938 493.378906 " clip-rule="nonzero"/></clipPath><clipPath id="a9ff615402"><path d="M 936.414062 317.34375 L 335.988281 518.84375 L 389.285156 677.707031 L 989.710938 476.207031 Z M 936.414062 317.34375 " clip-rule="nonzero"/></clipPath><clipPath id="7a8785e5f0"><path d="M 936.414062 317.34375 L 335.988281 518.84375 L 389.285156 677.707031 L 989.710938 476.207031 Z M 936.414062 317.34375 " clip-rule="nonzero"/></clipPath><clipPath id="947a82a953"><path d="M 452.835938 357.832031 L 963.652344 357.832031 L 963.652344 599.683594 L 452.835938 599.683594 Z M 452.835938 357.832031 " clip-rule="nonzero"/></clipPath><clipPath id="1c43bfac62"><path d="M 416.753906 501.46875 L 940.9375 325.558594 L 993.878906 483.363281 L 469.699219 659.273438 Z M 416.753906 501.46875 " clip-rule="nonzero"/></clipPath><clipPath id="9e69a58709"><path d="M 940.582031 325.4375 L 340.15625 526.933594 L 393.457031 685.796875 L 993.878906 484.300781 Z M 940.582031 325.4375 " clip-rule="nonzero"/></clipPath><clipPath id="3482606a07"><path d="M 940.582031 325.4375 L 340.15625 526.933594 L 393.457031 685.796875 L 993.878906 484.300781 Z M 940.582031 325.4375 " clip-rule="nonzero"/></clipPath><clipPath id="ffe2d7f04a"><path d="M 452.835938 342 L 964 342 L 964 584 L 452.835938 584 Z M 452.835938 342 " clip-rule="nonzero"/></clipPath><clipPath id="e203f12582"><path d="M 417.367188 485.726562 L 941.546875 309.820312 L 994.492188 467.625 L 470.3125 643.535156 Z M 417.367188 485.726562 " clip-rule="nonzero"/></clipPath><clipPath id="74f12dbac9"><path d="M 941.195312 309.691406 L 340.769531 511.191406 L 394.066406 670.050781 L 994.492188 468.558594 Z M 941.195312 309.691406 " clip-rule="nonzero"/></clipPath><clipPath id="cb0bb5f156"><path d="M 941.195312 309.691406 L 340.769531 511.191406 L 394.066406 670.050781 L 994.492188 468.558594 Z M 941.195312 309.691406 " clip-rule="nonzero"/></clipPath><clipPath id="5d25ebb122"><path d="M 452.835938 350 L 965.835938 350 L 965.835938 592 L 452.835938 592 Z M 452.835938 350 " clip-rule="nonzero"/></clipPath><clipPath id="55d549568a"><path d="M 421.535156 493.820312 L 945.714844 317.910156 L 998.660156 475.714844 L 474.480469 651.625 Z M 421.535156 493.820312 " clip-rule="nonzero"/></clipPath><clipPath id="5d111aeeb1"><path d="M 945.363281 317.785156 L 344.9375 519.28125 L 398.234375 678.144531 L 998.660156 476.648438 Z M 945.363281 317.785156 " clip-rule="nonzero"/></clipPath><clipPath id="dc42322bda"><path d="M 945.363281 317.785156 L 344.9375 519.28125 L 398.234375 678.144531 L 998.660156 476.648438 Z M 945.363281 317.785156 " clip-rule="nonzero"/></clipPath><clipPath id="06c3f34123"><path d="M 452.835938 331 L 964 331 L 964 573.609375 L 452.835938 573.609375 Z M 452.835938 331 " clip-rule="nonzero"/></clipPath><clipPath id="479ae9b354"><path d="M 417.367188 474.992188 L 941.546875 299.082031 L 994.492188 456.886719 L 470.3125 632.796875 Z M 417.367188 474.992188 " clip-rule="nonzero"/></clipPath><clipPath id="4e0871d8dc"><path d="M 941.195312 298.960938 L 340.769531 500.453125 L 394.066406 659.320312 L 994.492188 457.820312 Z M 941.195312 298.960938 " clip-rule="nonzero"/></clipPath><clipPath id="861a95f2f8"><path d="M 941.195312 298.960938 L 340.769531 500.453125 L 394.066406 659.320312 L 994.492188 457.820312 Z M 941.195312 298.960938 " clip-rule="nonzero"/></clipPath><clipPath id="396326bd1e"><path d="M 452.835938 339 L 965.835938 339 L 965.835938 581.699219 L 452.835938 581.699219 Z M 452.835938 339 " clip-rule="nonzero"/></clipPath><clipPath id="1d691ecdd2"><path d="M 421.535156 483.082031 L 945.714844 307.175781 L 998.660156 464.980469 L 474.480469 640.890625 Z M 421.535156 483.082031 " clip-rule="nonzero"/></clipPath><clipPath id="2bcdce6145"><path d="M 945.363281 307.050781 L 344.9375 508.546875 L 398.234375 667.410156 L 998.660156 465.914062 Z M 945.363281 307.050781 " clip-rule="nonzero"/></clipPath><clipPath id="31a67b7dff"><path d="M 945.363281 307.050781 L 344.9375 508.546875 L 398.234375 667.410156 L 998.660156 465.914062 Z M 945.363281 307.050781 " clip-rule="nonzero"/></clipPath><clipPath id="a759d1cebd"><path d="M 623.15625 275.039062 L 788.613281 275.039062 L 788.613281 440.523438 L 623.15625 440.523438 Z M 623.15625 275.039062 " clip-rule="nonzero"/></clipPath><clipPath id="7ffcd86540"><path d="M 705.882812 275.039062 C 660.191406 275.039062 623.15625 312.085938 623.15625 357.777344 C 623.15625 403.476562 660.191406 440.523438 705.882812 440.523438 C 751.574219 440.523438 788.613281 403.476562 788.613281 357.777344 C 788.613281 312.085938 751.574219 275.039062 705.882812 275.039062 Z M 705.882812 275.039062 " clip-rule="nonzero"/></clipPath><clipPath id="1fb089f6cf"><path d="M 613.03125 425.496094 L 961.855469 425.496094 L 961.855469 622.277344 L 613.03125 622.277344 Z M 613.03125 425.496094 " clip-rule="nonzero"/></clipPath><clipPath id="02e74a2598"><path d="M 655.507812 425.496094 L 919.078125 425.496094 C 930.34375 425.496094 941.144531 429.976562 949.113281 437.941406 C 957.078125 445.910156 961.554688 456.710938 961.554688 467.980469 L 961.554688 579.796875 C 961.554688 591.0625 957.078125 601.867188 949.113281 609.835938 C 941.144531 617.800781 930.34375 622.277344 919.078125 622.277344 L 655.507812 622.277344 C 644.242188 622.277344 633.4375 617.800781 625.472656 609.835938 C 617.507812 601.867188 613.03125 591.0625 613.03125 579.796875 L 613.03125 467.980469 C 613.03125 456.710938 617.507812 445.910156 625.472656 437.941406 C 633.4375 429.976562 644.242188 425.496094 655.507812 425.496094 Z M 655.507812 425.496094 " clip-rule="nonzero"/></clipPath><clipPath id="7277d352b6"><path d="M 613.035156 425.496094 L 961.527344 425.496094 L 961.527344 622.113281 L 613.035156 622.113281 Z M 613.035156 425.496094 " clip-rule="nonzero"/></clipPath><clipPath id="94f79a56f5"><path d="M 655.511719 425.496094 L 919.066406 425.496094 C 930.332031 425.496094 941.136719 429.976562 949.101562 437.941406 C 957.066406 445.90625 961.542969 456.710938 961.542969 467.980469 L 961.542969 579.789062 C 961.542969 591.058594 957.066406 601.859375 949.101562 609.828125 C 941.136719 617.792969 930.332031 622.269531 919.066406 622.269531 L 655.511719 622.269531 C 644.246094 622.269531 633.441406 617.792969 625.476562 609.828125 C 617.507812 601.859375 613.035156 591.058594 613.035156 579.789062 L 613.035156 467.980469 C 613.035156 456.710938 617.507812 445.90625 625.476562 437.941406 C 633.441406 429.976562 644.246094 425.496094 655.511719 425.496094 Z M 655.511719 425.496094 " clip-rule="nonzero"/></clipPath><clipPath id="8316fc7749"><path d="M 772.542969 355.835938 L 961.554688 355.835938 L 961.554688 614 L 772.542969 614 Z M 772.542969 355.835938 " clip-rule="nonzero"/></clipPath><clipPath id="7f1157cf2f"><path d="M 815.019531 355.835938 L 919.078125 355.835938 C 930.34375 355.835938 941.144531 360.3125 949.113281 368.277344 C 957.078125 376.246094 961.554688 387.046875 961.554688 398.316406 L 961.554688 571.394531 C 961.554688 582.660156 957.078125 593.464844 949.113281 601.429688 C 941.144531 609.398438 930.34375 613.875 919.078125 613.875 L 815.019531 613.875 C 803.753906 613.875 792.949219 609.398438 784.984375 601.429688 C 777.019531 593.464844 772.542969 582.660156 772.542969 571.394531 L 772.542969 398.316406 C 772.542969 387.046875 777.019531 376.246094 784.984375 368.277344 C 792.949219 360.3125 803.753906 355.835938 815.019531 355.835938 Z M 815.019531 355.835938 " clip-rule="nonzero"/></clipPath><clipPath id="a53ac569df"><path d="M 772.542969 355.84375 L 961.316406 355.84375 L 961.316406 613.886719 L 772.542969 613.886719 Z M 772.542969 355.84375 " clip-rule="nonzero"/></clipPath><clipPath id="83abdfa735"><path d="M 815.015625 355.84375 L 919.066406 355.84375 C 930.332031 355.84375 941.132812 360.316406 949.101562 368.285156 C 957.066406 376.25 961.539062 387.054688 961.539062 398.320312 L 961.539062 571.386719 C 961.539062 582.652344 957.066406 593.460938 949.101562 601.425781 C 941.132812 609.390625 930.332031 613.863281 919.066406 613.863281 L 815.015625 613.863281 C 803.75 613.863281 792.949219 609.390625 784.984375 601.425781 C 777.019531 593.460938 772.542969 582.652344 772.542969 571.386719 L 772.542969 398.320312 C 772.542969 387.054688 777.019531 376.25 784.984375 368.285156 C 792.949219 360.316406 803.75 355.84375 815.015625 355.84375 Z M 815.015625 355.84375 " clip-rule="nonzero"/></clipPath><clipPath id="f9107f7b53"><path d="M 710.726562 412.496094 L 899.828125 412.496094 L 899.828125 559.496094 L 710.726562 559.496094 Z M 710.726562 412.496094 " clip-rule="nonzero"/></clipPath><clipPath id="c9c3bb26ef"><path d="M 753.203125 412.496094 L 857.257812 412.496094 C 868.523438 412.496094 879.328125 416.96875 887.292969 424.933594 C 895.257812 432.902344 899.734375 443.710938 899.734375 454.976562 L 899.734375 517.015625 C 899.734375 528.285156 895.257812 539.089844 887.292969 547.054688 C 879.328125 555.023438 868.523438 559.496094 857.257812 559.496094 L 753.203125 559.496094 C 741.9375 559.496094 731.132812 555.023438 723.167969 547.054688 C 715.199219 539.089844 710.726562 528.285156 710.726562 517.015625 L 710.726562 454.976562 C 710.726562 443.710938 715.199219 432.902344 723.167969 424.933594 C 731.132812 416.96875 741.9375 412.496094 753.203125 412.496094 Z M 753.203125 412.496094 " clip-rule="nonzero"/></clipPath><clipPath id="798d1a50f1"><path d="M 710.730469 412.496094 L 899.492188 412.496094 L 899.492188 559.953125 L 710.730469 559.953125 Z M 710.730469 412.496094 " clip-rule="nonzero"/></clipPath><clipPath id="86c13db6ff"><path d="M 753.203125 412.496094 L 857.246094 412.496094 C 868.511719 412.496094 879.3125 416.96875 887.277344 424.933594 C 895.242188 432.902344 899.71875 443.707031 899.71875 454.96875 L 899.71875 517.007812 C 899.71875 528.273438 895.242188 539.074219 887.277344 547.039062 C 879.3125 555.007812 868.511719 559.484375 857.246094 559.484375 L 753.203125 559.484375 C 741.9375 559.484375 731.132812 555.007812 723.167969 547.039062 C 715.203125 539.074219 710.730469 528.273438 710.730469 517.007812 L 710.730469 454.96875 C 710.730469 443.707031 715.203125 432.902344 723.167969 424.933594 C 731.132812 416.96875 741.9375 412.496094 753.203125 412.496094 Z M 753.203125 412.496094 " clip-rule="nonzero"/></clipPath></defs><g clip-path="url(#169d448468)"><path fill="#000000" d="M 653.777344 410.074219 L 961.386719 410.074219 L 961.386719 594.089844 L 653.777344 594.089844 Z M 653.777344 410.074219 " fill-opacity="1" fill-rule="nonzero"/></g><g clip-path="url(#d3d7adbda9)"><g clip-path="url(#75411c5909)"><path fill="#000000" d="M 451.042969 318.34375 L 970.058594 318.34375 L 970.058594 699.105469 L 451.042969 699.105469 Z M 451.042969 318.34375 " fill-opacity="1" fill-rule="nonzero"/></g></g><g clip-path="url(#c0de89d181)"><g clip-path="url(#038d0b1f63)"><path stroke-linecap="butt" transform="matrix(1.11698, 0, 0, 1.117126, 451.050512, 318.341459)" fill="none" stroke-linejoin="miter" d="M 464.957116 10.866281 L 464.957116 256.292289 C 464.957116 262.761175 460.767528 268.485264 454.602049 270.439916 L 242.835495 337.548481 C 236.096483 339.681465 228.860875 339.681465 222.121863 337.548481 L 10.355309 270.439916 C 4.193327 268.485264 0.000241472 262.761175 0.000241472 256.292289 L 0.000241472 10.866281 C 0.000241472 4.862456 4.86478 0.00205063 10.862396 0.00205063 L 454.091464 0.00205063 C 460.092577 0.00205063 464.957116 4.862456 464.957116 10.866281 Z M 464.957116 10.866281 " stroke="#000000" stroke-width="24.143999" stroke-opacity="1" stroke-miterlimit="4"/></g></g><g clip-path="url(#490b434956)"><g clip-path="url(#cc28d5cd0d)"><path fill="#ff9100" d="M 451.042969 29.144531 L 968.941406 29.144531 L 968.941406 591.628906 L 451.042969 591.628906 Z M 451.042969 29.144531 " fill-opacity="1" fill-rule="nonzero"/></g></g><g clip-path="url(#1126959400)"><g clip-path="url(#823667d409)"><path stroke-linecap="butt" transform="matrix(1.11698, 0, 0, 1.117126, 451.047824, 29.147998)" fill="none" stroke-linejoin="miter" d="M 154.636226 11.819222 C 178.325935 4.682468 205.425367 -0.00310296 231.951267 -0.00310296 C 258.473669 -0.00310296 283.995886 4.014599 307.514234 11.151353 C 308.014327 11.371645 308.517917 11.371645 309.018009 11.595433 C 397.342085 40.138952 462.39611 115.50671 463.648091 203.591946 L 463.648091 503.734234 L -0.000849192 503.734234 L -0.000849192 203.812238 C 1.251131 115.06263 65.304971 39.691375 154.636226 11.819222 Z M 154.636226 11.819222 " stroke="#000000" stroke-width="24.143999" stroke-opacity="1" stroke-miterlimit="4"/></g></g><g clip-path="url(#862faea36c)"><g clip-path="url(#7bd4029fbf)"><g clip-path="url(#d25c109a61)"><g clip-path="url(#b9573223f0)"><path fill="#000000" d="M 954.988281 300.929688 C 906.550781 253.609375 832.882812 262.832031 781.875 300.4375 C 730.871094 338.042969 709.929688 398.246094 665.859375 441.464844 C 583.25 522.441406 439.160156 516.3125 347.539062 453.292969 C 343.003906 450.171875 347.199219 442.472656 352.3125 444.015625 C 412.621094 460.382812 469.964844 482.996094 533.878906 477.007812 C 542.03125 476.316406 550.121094 475.160156 558.144531 473.546875 C 566.167969 471.933594 574.070312 469.871094 581.859375 467.359375 C 589.648438 464.851562 597.273438 461.910156 604.722656 458.53125 C 612.179688 455.15625 619.417969 451.371094 626.445312 447.171875 C 654.667969 429.796875 674.675781 404.707031 693.617188 378.054688 C 727.28125 330.769531 764.957031 285.050781 822.347656 266.828125 C 869.414062 251.839844 923.691406 260.632812 958.421875 297.242188 C 960.644531 299.414062 957.414062 303.261719 954.988281 300.929688 Z M 954.988281 300.929688 " fill-opacity="1" fill-rule="nonzero"/></g></g></g></g><g clip-path="url(#220587bc8c)"><g clip-path="url(#820effe2ec)"><g clip-path="url(#aa471ec18e)"><g clip-path="url(#6b85fa9f52)"><path fill="#000000" d="M 959.15625 309.023438 C 910.71875 261.699219 837.050781 270.921875 786.042969 308.53125 C 735.039062 346.132812 714.097656 406.339844 670.027344 449.558594 C 587.417969 530.535156 443.328125 524.40625 351.707031 461.386719 C 347.171875 458.265625 351.371094 450.5625 356.484375 452.109375 C 416.789062 468.472656 474.132812 491.085938 538.046875 485.101562 C 546.199219 484.40625 554.289062 483.253906 562.3125 481.640625 C 570.335938 480.023438 578.238281 477.964844 586.027344 475.453125 C 593.816406 472.945312 601.441406 470 608.890625 466.621094 C 616.347656 463.246094 623.589844 459.460938 630.613281 455.265625 C 658.835938 437.886719 678.84375 412.796875 697.785156 386.144531 C 731.449219 338.859375 769.125 293.144531 826.515625 274.921875 C 873.582031 259.929688 927.859375 268.726562 962.589844 305.335938 C 964.8125 307.503906 961.582031 311.355469 959.15625 309.023438 Z M 959.15625 309.023438 " fill-opacity="1" fill-rule="nonzero"/></g></g></g></g><g clip-path="url(#3dd30a58f8)"><g clip-path="url(#5a18e6717c)"><g clip-path="url(#c7eed52602)"><g clip-path="url(#b620f184a6)"><path fill="#000000" d="M 954.988281 290.195312 C 906.550781 242.875 832.882812 252.09375 781.875 289.703125 C 730.871094 327.308594 709.929688 387.511719 665.859375 430.730469 C 583.25 511.707031 439.160156 505.582031 347.539062 442.558594 C 343.003906 439.441406 347.199219 431.738281 352.3125 433.285156 C 412.621094 449.644531 469.964844 472.261719 533.878906 466.273438 C 542.03125 465.578125 550.121094 464.425781 558.144531 462.8125 C 566.167969 461.199219 574.070312 459.140625 581.859375 456.628906 C 589.648438 454.117188 597.273438 451.171875 604.722656 447.796875 C 612.179688 444.421875 619.417969 440.632812 626.445312 436.4375 C 654.667969 419.0625 674.675781 393.972656 693.617188 367.316406 C 727.28125 320.03125 764.957031 274.316406 822.347656 256.09375 C 869.414062 241.101562 923.691406 249.898438 958.421875 286.507812 C 960.644531 288.679688 957.414062 292.527344 954.988281 290.195312 Z M 954.988281 290.195312 " fill-opacity="1" fill-rule="nonzero"/></g></g></g></g><g clip-path="url(#e104a3c69f)"><g clip-path="url(#16fd6d3864)"><g clip-path="url(#b9cf86ac03)"><g clip-path="url(#c29df20d6d)"><path fill="#000000" d="M 959.15625 298.285156 C 910.71875 250.96875 837.050781 260.1875 786.042969 297.792969 C 735.039062 335.398438 714.097656 395.601562 670.027344 438.820312 C 587.417969 519.796875 443.328125 513.671875 351.707031 450.648438 C 347.171875 447.53125 351.371094 439.828125 356.484375 441.375 C 416.789062 457.738281 474.132812 480.355469 538.046875 474.367188 C 546.199219 473.671875 554.289062 472.515625 562.3125 470.902344 C 570.335938 469.292969 578.238281 467.230469 586.027344 464.71875 C 593.816406 462.207031 601.441406 459.265625 608.890625 455.890625 C 616.347656 452.515625 623.589844 448.726562 630.613281 444.527344 C 658.835938 427.15625 678.84375 402.066406 697.785156 375.410156 C 731.449219 328.125 769.125 282.40625 826.515625 264.183594 C 873.582031 249.195312 927.859375 257.988281 962.589844 294.601562 C 964.8125 296.773438 961.582031 300.617188 959.15625 298.285156 Z M 959.15625 298.285156 " fill-opacity="1" fill-rule="nonzero"/></g></g></g></g><g clip-path="url(#130ec2a7cc)"><g clip-path="url(#dc81fe7fe6)"><g clip-path="url(#98208c8e49)"><g clip-path="url(#9252a6a8c2)"><path fill="#000000" d="M 959.765625 282.542969 C 911.332031 235.222656 837.664062 244.445312 786.65625 282.050781 C 735.648438 319.65625 714.710938 379.859375 670.644531 423.078125 C 588.03125 504.058594 443.941406 497.929688 352.316406 434.910156 C 347.785156 431.789062 351.980469 424.085938 357.097656 425.628906 C 417.402344 441.996094 474.742188 464.609375 538.65625 458.621094 C 546.8125 457.925781 554.902344 456.773438 562.921875 455.160156 C 570.945312 453.546875 578.851562 451.484375 586.644531 448.976562 C 594.433594 446.464844 602.050781 443.519531 609.507812 440.144531 C 616.960938 436.769531 624.203125 432.984375 631.226562 428.789062 C 659.453125 411.410156 679.453125 386.320312 698.398438 359.667969 C 732.058594 312.382812 769.734375 266.667969 827.132812 248.441406 C 874.195312 233.449219 928.476562 242.246094 963.203125 278.855469 C 965.425781 281.027344 962.195312 284.871094 959.765625 282.542969 Z M 959.765625 282.542969 " fill-opacity="1" fill-rule="nonzero"/></g></g></g></g><g clip-path="url(#52eb65b9d6)"><g clip-path="url(#88caae1b76)"><g clip-path="url(#986859c68a)"><g clip-path="url(#ccbe7ccf6f)"><path fill="#000000" d="M 963.933594 290.636719 C 915.5 243.316406 841.832031 252.539062 790.824219 290.140625 C 739.816406 327.746094 718.878906 387.949219 674.8125 431.167969 C 592.199219 512.148438 448.109375 506.019531 356.484375 443 C 351.953125 439.878906 356.148438 432.175781 361.265625 433.722656 C 421.570312 450.089844 478.914062 472.703125 542.824219 466.714844 C 550.980469 466.019531 559.070312 464.867188 567.089844 463.25 C 575.113281 461.640625 583.023438 459.578125 590.8125 457.066406 C 598.601562 454.554688 606.21875 451.613281 613.675781 448.238281 C 621.128906 444.863281 628.371094 441.078125 635.394531 436.878906 C 663.621094 419.503906 683.621094 394.414062 702.566406 367.761719 C 736.226562 320.472656 773.902344 274.757812 831.300781 256.53125 C 878.363281 241.542969 932.644531 250.339844 967.371094 286.949219 C 969.59375 289.117188 966.363281 292.964844 963.933594 290.636719 Z M 963.933594 290.636719 " fill-opacity="1" fill-rule="nonzero"/></g></g></g></g><g clip-path="url(#7747f869fd)"><g clip-path="url(#ee9226bb19)"><g clip-path="url(#0e5780c349)"><g clip-path="url(#d1bf5d7151)"><path fill="#000000" d="M 959.765625 271.808594 C 911.332031 224.488281 837.664062 233.710938 786.65625 271.316406 C 735.648438 308.921875 714.710938 369.125 670.644531 412.34375 C 588.03125 493.320312 443.941406 487.195312 352.316406 424.171875 C 347.785156 421.050781 351.980469 413.351562 357.097656 414.898438 C 417.402344 431.261719 474.742188 453.875 538.65625 447.890625 C 546.8125 447.195312 554.902344 446.039062 562.921875 444.425781 C 570.945312 442.816406 578.851562 440.753906 586.644531 438.242188 C 594.433594 435.730469 602.050781 432.789062 609.507812 429.414062 C 616.960938 426.035156 624.203125 422.25 631.226562 418.050781 C 659.453125 400.679688 679.453125 375.585938 698.398438 348.933594 C 732.058594 301.644531 769.734375 255.929688 827.132812 237.707031 C 874.195312 222.71875 928.476562 231.511719 963.203125 268.125 C 965.425781 270.292969 962.195312 274.140625 959.765625 271.808594 Z M 959.765625 271.808594 " fill-opacity="1" fill-rule="nonzero"/></g></g></g></g><g clip-path="url(#261cc733c9)"><g clip-path="url(#826be43ebf)"><g clip-path="url(#d7248085d7)"><g clip-path="url(#e09fdd84b7)"><path fill="#000000" d="M 963.933594 279.898438 C 915.5 232.578125 841.832031 241.800781 790.824219 279.410156 C 739.816406 317.015625 718.878906 377.21875 674.8125 420.4375 C 592.199219 501.414062 448.109375 495.289062 356.484375 432.265625 C 351.953125 429.144531 356.148438 421.445312 361.265625 422.988281 C 421.570312 439.351562 478.914062 461.964844 542.824219 455.980469 C 550.980469 455.285156 559.070312 454.128906 567.089844 452.519531 C 575.113281 450.90625 583.023438 448.84375 590.8125 446.335938 C 598.601562 443.824219 606.21875 440.878906 613.675781 437.503906 C 621.128906 434.125 628.371094 430.339844 635.394531 426.144531 C 663.621094 408.769531 683.621094 383.675781 702.566406 357.023438 C 736.226562 309.738281 773.902344 264.023438 831.300781 245.796875 C 878.363281 230.808594 932.644531 239.601562 967.371094 276.214844 C 969.59375 278.386719 966.363281 282.230469 963.933594 279.898438 Z M 963.933594 279.898438 " fill-opacity="1" fill-rule="nonzero"/></g></g></g></g><g clip-path="url(#42099359cb)"><g clip-path="url(#81a117c4f6)"><g clip-path="url(#b37ce6178b)"><g clip-path="url(#440aa96273)"><path fill="#000000" d="M 954.988281 342.351562 C 906.550781 295.03125 832.882812 304.253906 781.875 341.855469 C 730.871094 379.460938 709.929688 439.664062 665.859375 482.882812 C 583.25 563.859375 439.160156 557.734375 347.539062 494.710938 C 343.003906 491.59375 347.199219 483.890625 352.3125 485.4375 C 412.621094 501.800781 469.964844 524.417969 533.878906 518.429688 C 542.03125 517.734375 550.121094 516.582031 558.144531 514.964844 C 566.167969 513.355469 574.070312 511.292969 581.859375 508.78125 C 589.648438 506.269531 597.273438 503.328125 604.722656 499.953125 C 612.179688 496.578125 619.417969 492.789062 626.445312 488.589844 C 654.667969 471.214844 674.675781 446.125 693.617188 419.472656 C 727.28125 372.1875 764.957031 326.46875 822.347656 308.246094 C 869.414062 293.257812 923.691406 302.054688 958.421875 338.664062 C 960.644531 340.832031 957.414062 344.679688 954.988281 342.351562 Z M 954.988281 342.351562 " fill-opacity="1" fill-rule="nonzero"/></g></g></g></g><g clip-path="url(#f376662497)"><g clip-path="url(#a6b8d692c4)"><g clip-path="url(#a97c61ae05)"><g clip-path="url(#76af3ebf94)"><path fill="#000000" d="M 959.15625 350.441406 C 910.71875 303.121094 837.050781 312.34375 786.042969 349.945312 C 735.039062 387.554688 714.097656 447.757812 670.027344 490.976562 C 587.417969 571.953125 443.328125 565.828125 351.707031 502.804688 C 347.171875 499.683594 351.371094 491.984375 356.484375 493.527344 C 416.789062 509.894531 474.132812 532.507812 538.046875 526.519531 C 546.199219 525.824219 554.289062 524.671875 562.3125 523.058594 C 570.335938 521.445312 578.238281 519.382812 586.027344 516.871094 C 593.816406 514.363281 601.441406 511.417969 608.890625 508.042969 C 616.347656 504.667969 623.589844 500.882812 630.613281 496.683594 C 658.835938 479.308594 678.84375 454.21875 697.785156 427.5625 C 731.449219 380.28125 769.125 334.5625 826.515625 316.335938 C 873.582031 301.347656 927.859375 310.144531 962.589844 346.753906 C 964.8125 348.925781 961.582031 352.769531 959.15625 350.441406 Z M 959.15625 350.441406 " fill-opacity="1" fill-rule="nonzero"/></g></g></g></g><g clip-path="url(#acb722dc31)"><g clip-path="url(#1a438fae7a)"><g clip-path="url(#1946980c0b)"><g clip-path="url(#4955f22891)"><path fill="#000000" d="M 954.988281 331.613281 C 906.550781 284.292969 832.882812 293.515625 781.875 331.121094 C 730.871094 368.726562 709.929688 428.933594 665.859375 472.152344 C 583.25 553.128906 439.160156 547 347.539062 483.980469 C 343.003906 480.855469 347.199219 473.160156 352.3125 474.699219 C 412.621094 491.066406 469.964844 513.679688 533.878906 507.695312 C 542.03125 507 550.121094 505.84375 558.144531 504.234375 C 566.167969 502.617188 574.070312 500.554688 581.859375 498.046875 C 589.648438 495.539062 597.273438 492.59375 604.722656 489.214844 C 612.179688 485.839844 619.417969 482.054688 626.445312 477.859375 C 654.667969 460.480469 674.675781 435.390625 693.617188 408.738281 C 727.28125 361.453125 764.957031 315.738281 822.347656 297.511719 C 869.414062 282.523438 923.691406 291.316406 958.421875 327.929688 C 960.644531 330.101562 957.414062 333.945312 954.988281 331.613281 Z M 954.988281 331.613281 " fill-opacity="1" fill-rule="nonzero"/></g></g></g></g><g clip-path="url(#feeae91726)"><g clip-path="url(#fb7ad9c76e)"><g clip-path="url(#0e214ed95b)"><g clip-path="url(#9f876d7218)"><path fill="#000000" d="M 959.15625 339.707031 C 910.71875 292.386719 837.050781 301.609375 786.042969 339.214844 C 735.039062 376.816406 714.097656 437.023438 670.027344 480.242188 C 587.417969 561.21875 443.328125 555.089844 351.707031 492.070312 C 347.171875 488.949219 351.371094 481.25 356.484375 482.792969 C 416.789062 499.15625 474.132812 521.773438 538.046875 515.789062 C 546.199219 515.09375 554.289062 513.9375 562.3125 512.324219 C 570.335938 510.710938 578.238281 508.648438 586.027344 506.140625 C 593.816406 503.628906 601.441406 500.6875 608.890625 497.308594 C 616.347656 493.933594 623.589844 490.144531 630.613281 485.949219 C 658.835938 468.570312 678.84375 443.480469 697.785156 416.828125 C 731.449219 369.542969 769.125 323.828125 826.515625 305.605469 C 873.582031 290.613281 927.859375 299.410156 962.589844 336.023438 C 964.8125 338.191406 961.582031 342.039062 959.15625 339.707031 Z M 959.15625 339.707031 " fill-opacity="1" fill-rule="nonzero"/></g></g></g></g><g clip-path="url(#8de7fcee8d)"><g clip-path="url(#f00c63c864)"><g clip-path="url(#86dfcf74fb)"><g clip-path="url(#2635354234)"><path fill="#000000" d="M 959.765625 323.960938 C 911.332031 276.644531 837.664062 285.863281 786.65625 323.46875 C 735.648438 361.078125 714.710938 421.28125 670.644531 464.5 C 588.03125 545.472656 443.941406 539.347656 352.316406 476.328125 C 347.785156 473.203125 351.980469 465.507812 357.097656 467.050781 C 417.402344 483.414062 474.742188 506.03125 538.65625 500.042969 C 546.8125 499.347656 554.902344 498.191406 562.921875 496.582031 C 570.945312 494.96875 578.851562 492.90625 586.644531 490.394531 C 594.433594 487.882812 602.050781 484.941406 609.507812 481.566406 C 616.960938 478.191406 624.203125 474.402344 631.226562 470.207031 C 659.453125 452.832031 679.453125 427.738281 698.398438 401.085938 C 732.058594 353.800781 769.734375 308.082031 827.132812 289.859375 C 874.195312 274.871094 928.476562 283.664062 963.203125 320.277344 C 965.425781 322.449219 962.195312 326.292969 959.765625 323.960938 Z M 959.765625 323.960938 " fill-opacity="1" fill-rule="nonzero"/></g></g></g></g><g clip-path="url(#1208b2b5f8)"><g clip-path="url(#aef946b2c1)"><g clip-path="url(#6fba8042e4)"><g clip-path="url(#8d65e7b3b8)"><path fill="#000000" d="M 963.933594 332.054688 C 915.5 284.734375 841.832031 293.957031 790.824219 331.5625 C 739.816406 369.167969 718.878906 429.371094 674.8125 472.589844 C 592.199219 553.566406 448.109375 547.441406 356.484375 484.417969 C 351.953125 481.296875 356.148438 473.597656 361.265625 475.144531 C 421.570312 491.503906 478.914062 514.121094 542.824219 508.136719 C 550.980469 507.441406 559.070312 506.285156 567.089844 504.671875 C 575.113281 503.058594 583.023438 501 590.8125 498.488281 C 598.601562 495.976562 606.21875 493.035156 613.675781 489.65625 C 621.128906 486.28125 628.371094 482.492188 635.394531 478.296875 C 663.621094 460.921875 683.621094 435.828125 702.566406 409.175781 C 736.226562 361.890625 773.902344 316.175781 831.300781 297.953125 C 878.363281 282.960938 932.644531 291.757812 967.371094 328.371094 C 969.59375 330.539062 966.363281 334.386719 963.933594 332.054688 Z M 963.933594 332.054688 " fill-opacity="1" fill-rule="nonzero"/></g></g></g></g><g clip-path="url(#24881f992b)"><g clip-path="url(#f05239bfda)"><g clip-path="url(#ac2784c653)"><g clip-path="url(#7d2cf1f2ad)"><path fill="#000000" d="M 959.765625 313.230469 C 911.332031 265.90625 837.664062 275.128906 786.65625 312.734375 C 735.648438 350.339844 714.710938 410.546875 670.644531 453.761719 C 588.03125 534.742188 443.941406 528.613281 352.316406 465.59375 C 347.785156 462.472656 351.980469 454.769531 357.097656 456.316406 C 417.402344 472.679688 474.742188 495.296875 538.65625 489.308594 C 546.8125 488.613281 554.902344 487.460938 562.921875 485.847656 C 570.945312 484.230469 578.851562 482.171875 586.644531 479.660156 C 594.433594 477.152344 602.050781 474.207031 609.507812 470.832031 C 616.960938 467.457031 624.203125 463.667969 631.226562 459.472656 C 659.453125 442.09375 679.453125 417.003906 698.398438 390.351562 C 732.058594 343.066406 769.734375 297.351562 827.132812 279.125 C 874.195312 264.136719 928.476562 272.933594 963.203125 309.542969 C 965.425781 311.710938 962.195312 315.5625 959.765625 313.230469 Z M 959.765625 313.230469 " fill-opacity="1" fill-rule="nonzero"/></g></g></g></g><g clip-path="url(#234425d2b0)"><g clip-path="url(#a1bdfc8b29)"><g clip-path="url(#cb309eb302)"><g clip-path="url(#1e5f280d04)"><path fill="#000000" d="M 963.933594 321.320312 C 915.5 274 841.832031 283.222656 790.824219 320.824219 C 739.816406 358.433594 718.878906 418.636719 674.8125 461.855469 C 592.199219 542.832031 448.109375 536.703125 356.484375 473.6875 C 351.953125 470.5625 356.148438 462.863281 361.265625 464.40625 C 421.570312 480.773438 478.914062 503.386719 542.824219 497.398438 C 550.980469 496.703125 559.070312 495.550781 567.089844 493.9375 C 575.113281 492.324219 583.023438 490.261719 590.8125 487.75 C 598.601562 485.242188 606.21875 482.296875 613.675781 478.921875 C 621.128906 475.546875 628.371094 471.761719 635.394531 467.5625 C 663.621094 450.1875 683.621094 425.097656 702.566406 398.445312 C 736.226562 351.160156 773.902344 305.441406 831.300781 287.214844 C 878.363281 272.230469 932.644531 281.023438 967.371094 317.632812 C 969.59375 319.804688 966.363281 323.652344 963.933594 321.320312 Z M 963.933594 321.320312 " fill-opacity="1" fill-rule="nonzero"/></g></g></g></g><g clip-path="url(#71383ce8cb)"><g clip-path="url(#6935202fa0)"><g clip-path="url(#c3d4b82c70)"><g clip-path="url(#5cd660080d)"><path fill="#000000" d="M 954.988281 377.570312 C 906.550781 330.25 832.882812 339.472656 781.875 377.078125 C 730.871094 414.683594 709.929688 474.886719 665.859375 518.105469 C 583.25 599.082031 439.160156 592.957031 347.539062 529.933594 C 343.003906 526.8125 347.199219 519.113281 352.3125 520.660156 C 412.621094 537.019531 469.964844 559.636719 533.878906 553.652344 C 542.03125 552.957031 550.121094 551.800781 558.144531 550.1875 C 566.167969 548.574219 574.070312 546.515625 581.859375 544.003906 C 589.648438 541.492188 597.273438 538.550781 604.722656 535.171875 C 612.179688 531.796875 619.417969 528.007812 626.445312 523.8125 C 654.667969 506.4375 674.675781 481.34375 693.617188 454.691406 C 727.28125 407.40625 764.957031 361.691406 822.347656 343.46875 C 869.414062 328.476562 923.691406 337.273438 958.421875 373.886719 C 960.644531 376.054688 957.414062 379.902344 954.988281 377.570312 Z M 954.988281 377.570312 " fill-opacity="1" fill-rule="nonzero"/></g></g></g></g><g clip-path="url(#8ee772ea69)"><g clip-path="url(#a9ecd876e9)"><g clip-path="url(#c2df39248d)"><g clip-path="url(#eed5a65cf8)"><path fill="#000000" d="M 959.15625 385.660156 C 910.71875 338.339844 837.050781 347.5625 786.042969 385.167969 C 735.039062 422.777344 714.097656 482.976562 670.027344 526.195312 C 587.417969 607.171875 443.328125 601.046875 351.707031 538.027344 C 347.171875 534.902344 351.371094 527.207031 356.484375 528.75 C 416.789062 545.113281 474.132812 567.726562 538.046875 561.742188 C 546.199219 561.046875 554.289062 559.890625 562.3125 558.28125 C 570.335938 556.667969 578.238281 554.605469 586.027344 552.09375 C 593.816406 549.582031 601.441406 546.640625 608.890625 543.265625 C 616.347656 539.886719 623.589844 536.101562 630.613281 531.902344 C 658.835938 514.53125 678.84375 489.4375 697.785156 462.785156 C 731.449219 415.5 769.125 369.78125 826.515625 351.558594 C 873.582031 336.570312 927.859375 345.363281 962.589844 381.976562 C 964.8125 384.148438 961.582031 387.992188 959.15625 385.660156 Z M 959.15625 385.660156 " fill-opacity="1" fill-rule="nonzero"/></g></g></g></g><g clip-path="url(#6714a9bffd)"><g clip-path="url(#8e693cc00e)"><g clip-path="url(#c19e00cdb2)"><g clip-path="url(#4f9736aad6)"><path fill="#000000" d="M 954.988281 366.835938 C 906.550781 319.515625 832.882812 328.738281 781.875 366.339844 C 730.871094 403.949219 709.929688 464.152344 665.859375 507.371094 C 583.25 588.347656 439.160156 582.21875 347.539062 519.203125 C 343.003906 516.078125 347.199219 508.378906 352.3125 509.921875 C 412.621094 526.289062 469.964844 548.902344 533.878906 542.914062 C 542.03125 542.21875 550.121094 541.066406 558.144531 539.453125 C 566.167969 537.839844 574.070312 535.777344 581.859375 533.265625 C 589.648438 530.753906 597.273438 527.8125 604.722656 524.4375 C 612.179688 521.0625 619.417969 517.277344 626.445312 513.078125 C 654.667969 495.703125 674.675781 470.613281 693.617188 443.960938 C 727.28125 396.675781 764.957031 350.957031 822.347656 332.730469 C 869.414062 317.746094 923.691406 326.539062 958.421875 363.148438 C 960.644531 365.320312 957.414062 369.164062 954.988281 366.835938 Z M 954.988281 366.835938 " fill-opacity="1" fill-rule="nonzero"/></g></g></g></g><g clip-path="url(#527b1330e8)"><g clip-path="url(#1e47a1072a)"><g clip-path="url(#32d9a7eacd)"><g clip-path="url(#93344ef8bb)"><path fill="#000000" d="M 959.15625 374.929688 C 910.71875 327.605469 837.050781 336.828125 786.042969 374.433594 C 735.039062 412.039062 714.097656 472.242188 670.027344 515.460938 C 587.417969 596.441406 443.328125 590.3125 351.707031 527.292969 C 347.171875 524.171875 351.371094 516.46875 356.484375 518.015625 C 416.789062 534.378906 474.132812 556.992188 538.046875 551.007812 C 546.199219 550.3125 554.289062 549.160156 562.3125 547.542969 C 570.335938 545.929688 578.238281 543.871094 586.027344 541.359375 C 593.816406 538.847656 601.441406 535.90625 608.890625 532.527344 C 616.347656 529.152344 623.589844 525.367188 630.613281 521.171875 C 658.835938 503.792969 678.84375 478.703125 697.785156 452.050781 C 731.449219 404.765625 769.125 359.050781 826.515625 340.824219 C 873.582031 325.835938 927.859375 334.632812 962.589844 371.242188 C 964.8125 373.410156 961.582031 377.257812 959.15625 374.929688 Z M 959.15625 374.929688 " fill-opacity="1" fill-rule="nonzero"/></g></g></g></g><g clip-path="url(#04dfa34576)"><g clip-path="url(#01381b23c2)"><g clip-path="url(#f7ea911430)"><g clip-path="url(#6730fbc331)"><path fill="#000000" d="M 959.765625 359.183594 C 911.332031 311.863281 837.664062 321.085938 786.65625 358.691406 C 735.648438 396.296875 714.710938 456.5 670.644531 499.71875 C 588.03125 580.695312 443.941406 574.566406 352.316406 511.546875 C 347.785156 508.425781 351.980469 500.726562 357.097656 502.269531 C 417.402344 518.636719 474.742188 541.25 538.65625 535.265625 C 546.8125 534.570312 554.902344 533.414062 562.921875 531.800781 C 570.945312 530.1875 578.851562 528.125 586.644531 525.617188 C 594.433594 523.105469 602.050781 520.164062 609.507812 516.789062 C 616.960938 513.410156 624.203125 509.625 631.226562 505.425781 C 659.453125 488.054688 679.453125 462.960938 698.398438 436.308594 C 732.058594 389.023438 769.734375 343.304688 827.132812 325.082031 C 874.195312 310.09375 928.476562 318.886719 963.203125 355.5 C 965.425781 357.667969 962.195312 361.515625 959.765625 359.183594 Z M 959.765625 359.183594 " fill-opacity="1" fill-rule="nonzero"/></g></g></g></g><g clip-path="url(#c8abeb3e65)"><g clip-path="url(#845e70cfd9)"><g clip-path="url(#402d37bd00)"><g clip-path="url(#9663ee9d2a)"><path fill="#000000" d="M 963.933594 367.273438 C 915.5 319.953125 841.832031 329.175781 790.824219 366.785156 C 739.816406 404.386719 718.878906 464.59375 674.8125 507.8125 C 592.199219 588.789062 448.109375 582.660156 356.484375 519.640625 C 351.953125 516.519531 356.148438 508.820312 361.265625 510.363281 C 421.570312 526.726562 478.914062 549.339844 542.824219 543.355469 C 550.980469 542.660156 559.070312 541.507812 567.089844 539.894531 C 575.113281 538.277344 583.023438 536.21875 590.8125 533.710938 C 598.601562 531.199219 606.21875 528.253906 613.675781 524.878906 C 621.128906 521.5 628.371094 517.714844 635.394531 513.519531 C 663.621094 496.144531 683.621094 471.050781 702.566406 444.398438 C 736.226562 397.113281 773.902344 351.398438 831.300781 333.171875 C 878.363281 318.183594 932.644531 326.976562 967.371094 363.589844 C 969.59375 365.761719 966.363281 369.605469 963.933594 367.273438 Z M 963.933594 367.273438 " fill-opacity="1" fill-rule="nonzero"/></g></g></g></g><g clip-path="url(#b292313d07)"><g clip-path="url(#6d546f1c34)"><g clip-path="url(#63cd354dc4)"><g clip-path="url(#95a97d4043)"><path fill="#000000" d="M 959.765625 348.449219 C 911.332031 301.128906 837.664062 310.351562 786.65625 347.957031 C 735.648438 385.5625 714.710938 445.765625 670.644531 488.984375 C 588.03125 569.964844 443.941406 563.835938 352.316406 500.8125 C 347.785156 497.695312 351.980469 489.992188 357.097656 491.539062 C 417.402344 507.902344 474.742188 530.515625 538.65625 524.527344 C 546.8125 523.832031 554.902344 522.679688 562.921875 521.066406 C 570.945312 519.453125 578.851562 517.390625 586.644531 514.882812 C 594.433594 512.371094 602.050781 509.425781 609.507812 506.050781 C 616.960938 502.675781 624.203125 498.890625 631.226562 494.691406 C 659.453125 477.316406 679.453125 452.226562 698.398438 425.574219 C 732.058594 378.289062 769.734375 332.574219 827.132812 314.347656 C 874.195312 299.355469 928.476562 308.152344 963.203125 344.761719 C 965.425781 346.933594 962.195312 350.78125 959.765625 348.449219 Z M 959.765625 348.449219 " fill-opacity="1" fill-rule="nonzero"/></g></g></g></g><g clip-path="url(#004dad0b16)"><g clip-path="url(#d731a67b1b)"><g clip-path="url(#e359068ecc)"><g clip-path="url(#9b496c428f)"><path fill="#000000" d="M 963.933594 356.542969 C 915.5 309.222656 841.832031 318.445312 790.824219 356.046875 C 739.816406 393.652344 718.878906 453.855469 674.8125 497.074219 C 592.199219 578.054688 448.109375 571.925781 356.484375 508.902344 C 351.953125 505.785156 356.148438 498.082031 361.265625 499.628906 C 421.570312 515.996094 478.914062 538.609375 542.824219 532.621094 C 550.980469 531.925781 559.070312 530.773438 567.089844 529.15625 C 575.113281 527.546875 583.023438 525.484375 590.8125 522.972656 C 598.601562 520.460938 606.21875 517.519531 613.675781 514.144531 C 621.128906 510.769531 628.371094 506.984375 635.394531 502.78125 C 663.621094 485.410156 683.621094 460.320312 702.566406 433.667969 C 736.226562 386.378906 773.902344 340.664062 831.300781 322.4375 C 878.363281 307.449219 932.644531 316.246094 967.371094 352.855469 C 969.59375 355.023438 966.363281 358.871094 963.933594 356.542969 Z M 963.933594 356.542969 " fill-opacity="1" fill-rule="nonzero"/></g></g></g></g><g clip-path="url(#2adba9b14a)"><g clip-path="url(#9c42eb8a61)"><g clip-path="url(#a09112035b)"><g clip-path="url(#0e9d5a0a0e)"><path fill="#000000" d="M 954.988281 401.703125 C 906.550781 354.382812 832.882812 363.605469 781.875 401.210938 C 730.871094 438.820312 709.929688 499.019531 665.859375 542.238281 C 583.25 623.214844 439.160156 617.089844 347.539062 554.070312 C 343.003906 550.945312 347.199219 543.246094 352.3125 544.792969 C 412.621094 561.15625 469.964844 583.769531 533.878906 577.785156 C 542.03125 577.089844 550.121094 575.933594 558.144531 574.320312 C 566.167969 572.710938 574.070312 570.648438 581.859375 568.136719 C 589.648438 565.625 597.273438 562.683594 604.722656 559.308594 C 612.179688 555.933594 619.417969 552.144531 626.445312 547.945312 C 654.667969 530.574219 674.675781 505.480469 693.617188 478.828125 C 727.28125 431.542969 764.957031 385.824219 822.347656 367.601562 C 869.414062 352.613281 923.691406 361.40625 958.421875 398.019531 C 960.644531 400.191406 957.414062 404.035156 954.988281 401.703125 Z M 954.988281 401.703125 " fill-opacity="1" fill-rule="nonzero"/></g></g></g></g><g clip-path="url(#e7aeeab49f)"><g clip-path="url(#eb879059e1)"><g clip-path="url(#01f1a8e72f)"><g clip-path="url(#771056c2b1)"><path fill="#000000" d="M 959.15625 409.796875 C 910.71875 362.472656 837.050781 371.695312 786.042969 409.304688 C 735.039062 446.910156 714.097656 507.113281 670.027344 550.332031 C 587.417969 631.308594 443.328125 625.183594 351.707031 562.160156 C 347.171875 559.039062 351.371094 551.339844 356.484375 552.886719 C 416.789062 569.246094 474.132812 591.859375 538.046875 585.875 C 546.199219 585.179688 554.289062 584.027344 562.3125 582.414062 C 570.335938 580.800781 578.238281 578.742188 586.027344 576.230469 C 593.816406 573.71875 601.441406 570.773438 608.890625 567.398438 C 616.347656 564.023438 623.589844 560.234375 630.613281 556.039062 C 658.835938 538.664062 678.84375 513.570312 697.785156 486.917969 C 731.449219 439.632812 769.125 393.917969 826.515625 375.695312 C 873.582031 360.703125 927.859375 369.5 962.589844 406.109375 C 964.8125 408.28125 961.582031 412.128906 959.15625 409.796875 Z M 959.15625 409.796875 " fill-opacity="1" fill-rule="nonzero"/></g></g></g></g><g clip-path="url(#8c247b99de)"><g clip-path="url(#527c0ce716)"><g clip-path="url(#a9ff615402)"><g clip-path="url(#7a8785e5f0)"><path fill="#000000" d="M 954.988281 390.972656 C 906.550781 343.648438 832.882812 352.871094 781.875 390.476562 C 730.871094 428.082031 709.929688 488.289062 665.859375 531.503906 C 583.25 612.484375 439.160156 606.355469 347.539062 543.335938 C 343.003906 540.214844 347.199219 532.511719 352.3125 534.058594 C 412.621094 550.421875 469.964844 573.035156 533.878906 567.046875 C 542.03125 566.351562 550.121094 565.203125 558.144531 563.589844 C 566.167969 561.972656 574.070312 559.914062 581.859375 557.402344 C 589.648438 554.890625 597.273438 551.945312 604.722656 548.570312 C 612.179688 545.195312 619.417969 541.410156 626.445312 537.214844 C 654.667969 519.835938 674.675781 494.746094 693.617188 468.09375 C 727.28125 420.808594 764.957031 375.09375 822.347656 356.867188 C 869.414062 341.878906 923.691406 350.675781 958.421875 387.28125 C 960.644531 389.453125 957.414062 393.304688 954.988281 390.972656 Z M 954.988281 390.972656 " fill-opacity="1" fill-rule="nonzero"/></g></g></g></g><g clip-path="url(#947a82a953)"><g clip-path="url(#1c43bfac62)"><g clip-path="url(#9e69a58709)"><g clip-path="url(#3482606a07)"><path fill="#000000" d="M 959.15625 399.0625 C 910.71875 351.742188 837.050781 360.964844 786.042969 398.566406 C 735.039062 436.175781 714.097656 496.378906 670.027344 539.59375 C 587.417969 620.574219 443.328125 614.445312 351.707031 551.425781 C 347.171875 548.304688 351.371094 540.601562 356.484375 542.148438 C 416.789062 558.515625 474.132812 581.128906 538.046875 575.140625 C 546.199219 574.445312 554.289062 573.292969 562.3125 571.679688 C 570.335938 570.066406 578.238281 568.003906 586.027344 565.492188 C 593.816406 562.980469 601.441406 560.039062 608.890625 556.664062 C 616.347656 553.289062 623.589844 549.503906 630.613281 545.304688 C 658.835938 527.929688 678.84375 502.839844 697.785156 476.1875 C 731.449219 428.902344 769.125 383.183594 826.515625 364.957031 C 873.582031 349.972656 927.859375 358.765625 962.589844 395.375 C 964.8125 397.546875 961.582031 401.394531 959.15625 399.0625 Z M 959.15625 399.0625 " fill-opacity="1" fill-rule="nonzero"/></g></g></g></g><g clip-path="url(#ffe2d7f04a)"><g clip-path="url(#e203f12582)"><g clip-path="url(#74f12dbac9)"><g clip-path="url(#cb0bb5f156)"><path fill="#000000" d="M 959.765625 383.316406 C 911.332031 335.996094 837.664062 345.21875 786.65625 382.828125 C 735.648438 420.429688 714.710938 480.636719 670.644531 523.855469 C 588.03125 604.832031 443.941406 598.703125 352.316406 535.683594 C 347.785156 532.5625 351.980469 524.863281 357.097656 526.40625 C 417.402344 542.769531 474.742188 565.382812 538.65625 559.398438 C 546.8125 558.703125 554.902344 557.546875 562.921875 555.9375 C 570.945312 554.320312 578.851562 552.257812 586.644531 549.753906 C 594.433594 547.242188 602.050781 544.296875 609.507812 540.921875 C 616.960938 537.542969 624.203125 533.757812 631.226562 529.5625 C 659.453125 512.1875 679.453125 487.09375 698.398438 460.441406 C 732.058594 413.15625 769.734375 367.441406 827.132812 349.214844 C 874.195312 334.226562 928.476562 343.019531 963.203125 379.632812 C 965.425781 381.804688 962.195312 385.648438 959.765625 383.316406 Z M 959.765625 383.316406 " fill-opacity="1" fill-rule="nonzero"/></g></g></g></g><g clip-path="url(#5d25ebb122)"><g clip-path="url(#55d549568a)"><g clip-path="url(#5d111aeeb1)"><g clip-path="url(#dc42322bda)"><path fill="#000000" d="M 963.933594 391.410156 C 915.5 344.089844 841.832031 353.3125 790.824219 390.917969 C 739.816406 428.519531 718.878906 488.726562 674.8125 531.945312 C 592.199219 612.921875 448.109375 606.792969 356.484375 543.773438 C 351.953125 540.652344 356.148438 532.953125 361.265625 534.496094 C 421.570312 550.863281 478.914062 573.476562 542.824219 567.492188 C 550.980469 566.796875 559.070312 565.640625 567.089844 564.027344 C 575.113281 562.414062 583.023438 560.351562 590.8125 557.84375 C 598.601562 555.332031 606.21875 552.390625 613.675781 549.015625 C 621.128906 545.636719 628.371094 541.851562 635.394531 537.652344 C 663.621094 520.28125 683.621094 495.1875 702.566406 468.535156 C 736.226562 421.246094 773.902344 375.53125 831.300781 357.308594 C 878.363281 342.320312 932.644531 351.113281 967.371094 387.726562 C 969.59375 389.894531 966.363281 393.742188 963.933594 391.410156 Z M 963.933594 391.410156 " fill-opacity="1" fill-rule="nonzero"/></g></g></g></g><g clip-path="url(#06c3f34123)"><g clip-path="url(#479ae9b354)"><g clip-path="url(#4e0871d8dc)"><g clip-path="url(#861a95f2f8)"><path fill="#000000" d="M 959.765625 372.585938 C 911.332031 325.265625 837.664062 334.488281 786.65625 372.089844 C 735.648438 409.695312 714.710938 469.898438 670.644531 513.117188 C 588.03125 594.097656 443.941406 587.96875 352.316406 524.945312 C 347.785156 521.828125 351.980469 514.125 357.097656 515.671875 C 417.402344 532.039062 474.742188 554.652344 538.65625 548.664062 C 546.8125 547.96875 554.902344 546.816406 562.921875 545.199219 C 570.945312 543.589844 578.851562 541.527344 586.644531 539.015625 C 594.433594 536.503906 602.050781 533.5625 609.507812 530.1875 C 616.960938 526.8125 624.203125 523.027344 631.226562 518.824219 C 659.453125 501.453125 679.453125 476.363281 698.398438 449.710938 C 732.058594 402.421875 769.734375 356.707031 827.132812 338.480469 C 874.195312 323.492188 928.476562 332.289062 963.203125 368.898438 C 965.425781 371.066406 962.195312 374.914062 959.765625 372.585938 Z M 959.765625 372.585938 " fill-opacity="1" fill-rule="nonzero"/></g></g></g></g><g clip-path="url(#396326bd1e)"><g clip-path="url(#1d691ecdd2)"><g clip-path="url(#2bcdce6145)"><g clip-path="url(#31a67b7dff)"><path fill="#000000" d="M 963.933594 380.675781 C 915.5 333.355469 841.832031 342.578125 790.824219 380.183594 C 739.816406 417.789062 718.878906 477.992188 674.8125 521.210938 C 592.199219 602.191406 448.109375 596.0625 356.484375 533.039062 C 351.953125 529.917969 356.148438 522.21875 361.265625 523.761719 C 421.570312 540.128906 478.914062 562.742188 542.824219 556.753906 C 550.980469 556.058594 559.070312 554.90625 567.089844 553.292969 C 575.113281 551.679688 583.023438 549.617188 590.8125 547.109375 C 598.601562 544.597656 606.21875 541.652344 613.675781 538.277344 C 621.128906 534.902344 628.371094 531.117188 635.394531 526.917969 C 663.621094 509.542969 683.621094 484.453125 702.566406 457.800781 C 736.226562 410.515625 773.902344 364.800781 831.300781 346.570312 C 878.363281 331.582031 932.644531 340.378906 967.371094 376.988281 C 969.59375 379.160156 966.363281 383.003906 963.933594 380.675781 Z M 963.933594 380.675781 " fill-opacity="1" fill-rule="nonzero"/></g></g></g></g><g clip-path="url(#a759d1cebd)"><g clip-path="url(#7ffcd86540)"><path fill="#000000" d="M 623.15625 275.039062 L 788.613281 275.039062 L 788.613281 440.523438 L 623.15625 440.523438 Z M 623.15625 275.039062 " fill-opacity="1" fill-rule="nonzero"/></g></g><path fill="#ffffff" d="M 646.960938 378.367188 C 646.960938 374.960938 647.738281 371.691406 649.304688 368.5625 C 650.878906 365.425781 653.085938 362.570312 655.933594 359.992188 C 658.789062 357.417969 661.695312 355.167969 664.644531 353.234375 C 667.59375 351.296875 670.953125 349.3125 674.730469 347.277344 C 667.085938 337.707031 663.265625 329.285156 663.265625 322.007812 C 663.265625 312.980469 666.417969 305.773438 672.71875 300.386719 C 679.03125 294.992188 687.988281 292.296875 699.589844 292.296875 C 710.273438 292.296875 718.585938 295.292969 724.523438 301.285156 C 730.457031 307.269531 733.425781 314.179688 733.425781 322.007812 C 733.425781 325.230469 732.644531 328.382812 731.082031 331.476562 C 729.515625 334.558594 727.65625 337.179688 725.492188 339.34375 C 723.328125 341.503906 721.140625 343.414062 718.933594 345.074219 C 716.71875 346.730469 714.835938 347.976562 713.269531 348.808594 L 710.910156 350.046875 L 726.109375 365.792969 C 729.425781 364.328125 734.992188 359.535156 742.824219 351.421875 L 758.851562 367.171875 C 753.6875 373.070312 748.300781 378.28125 742.683594 382.792969 L 767.277344 408.347656 L 734.539062 408.347656 L 723.214844 396.601562 C 719.710938 399.09375 717.132812 400.867188 715.476562 401.925781 C 713.820312 402.988281 711.355469 404.34375 708.089844 406 C 704.820312 407.65625 701.457031 408.808594 698.003906 409.457031 C 694.546875 410.101562 690.75 410.425781 686.613281 410.425781 C 683.015625 410.425781 679.464844 410.121094 675.964844 409.527344 C 672.46875 408.925781 668.949219 407.867188 665.402344 406.351562 C 661.851562 404.828125 658.742188 402.910156 656.074219 400.605469 C 653.40625 398.300781 651.21875 395.238281 649.515625 391.417969 C 647.808594 387.597656 646.960938 383.25 646.960938 378.367188 Z M 699.589844 310.671875 C 696.277344 310.671875 693.789062 311.734375 692.132812 313.859375 C 690.472656 315.976562 689.644531 318.691406 689.644531 322.007812 C 689.644531 323.9375 690.332031 326.078125 691.710938 328.425781 C 693.09375 330.78125 694.476562 332.640625 695.855469 334.019531 L 697.933594 335.957031 C 706.40625 331.347656 710.644531 326.699219 710.644531 322.007812 C 710.644531 314.449219 706.957031 310.671875 699.589844 310.671875 Z M 706.359375 379.335938 L 688.269531 361.511719 C 687.988281 361.605469 687.570312 361.769531 687.019531 362 C 686.464844 362.226562 685.496094 362.78125 684.113281 363.660156 C 682.734375 364.53125 681.539062 365.496094 680.53125 366.554688 C 679.519531 367.613281 678.570312 369.019531 677.691406 370.765625 C 676.820312 372.519531 676.386719 374.363281 676.386719 376.300781 C 676.386719 379.335938 677.671875 381.683594 680.25 383.339844 C 682.832031 385 685.824219 385.828125 689.222656 385.828125 C 691.984375 385.828125 694.792969 385.300781 697.652344 384.238281 C 700.507812 383.183594 702.671875 382.101562 704.140625 380.996094 Z M 706.359375 379.335938 " fill-opacity="1" fill-rule="nonzero"/><g clip-path="url(#1fb089f6cf)"><g clip-path="url(#02e74a2598)"><path fill="#000000" d="M 613.03125 425.496094 L 961.191406 425.496094 L 961.191406 622.277344 L 613.03125 622.277344 Z M 613.03125 425.496094 " fill-opacity="1" fill-rule="nonzero"/></g></g><g clip-path="url(#7277d352b6)"><g clip-path="url(#94f79a56f5)"><path stroke-linecap="butt" transform="matrix(1.11698, 0, 0, 1.117126, 613.036199, 425.498495)" fill="none" stroke-linejoin="miter" d="M 38.027099 -0.00214912 L 273.983454 -0.00214912 C 284.069241 -0.00214912 293.742364 4.00856 300.86956 11.13832 C 308.000253 18.268081 312.00799 27.939938 312.00799 38.024406 L 312.00799 138.113795 C 312.00799 148.201759 308.000253 157.87012 300.86956 165.003378 C 293.742364 172.133138 284.069241 176.14035 273.983454 176.14035 L 38.027099 176.14035 C 27.941312 176.14035 18.268189 172.133138 11.137496 165.003378 C 4.006803 157.87012 -0.000933885 148.201759 -0.000933885 138.113795 L -0.000933885 38.024406 C -0.000933885 27.939938 4.006803 18.268081 11.137496 11.13832 C 18.268189 4.00856 27.941312 -0.00214912 38.027099 -0.00214912 Z M 38.027099 -0.00214912 " stroke="#000000" stroke-width="20.523001" stroke-opacity="1" stroke-miterlimit="4"/></g></g><g clip-path="url(#8316fc7749)"><g clip-path="url(#7f1157cf2f)"><path fill="#000000" d="M 772.542969 355.835938 L 961.554688 355.835938 L 961.554688 613.539062 L 772.542969 613.539062 Z M 772.542969 355.835938 " fill-opacity="1" fill-rule="nonzero"/></g></g><g clip-path="url(#a53ac569df)"><g clip-path="url(#83abdfa735)"><path stroke-linecap="butt" transform="matrix(1.11698, 0, 0, 1.117126, 772.544319, 355.841808)" fill="none" stroke-linejoin="miter" d="M 38.023327 0.00173866 L 131.176969 0.00173866 C 141.262756 0.00173866 150.932382 4.005454 158.066573 11.135215 C 165.197266 18.268472 169.201505 27.940329 169.201505 38.024797 L 169.201505 192.945856 C 169.201505 203.030324 165.197266 212.705678 158.066573 219.835438 C 150.932382 226.965199 141.262756 230.968914 131.176969 230.968914 L 38.023327 230.968914 C 27.93754 230.968914 18.267914 226.965199 11.137221 219.835438 C 4.006527 212.705678 -0.00120916 203.030324 -0.00120916 192.945856 L -0.00120916 38.024797 C -0.00120916 27.940329 4.006527 18.268472 11.137221 11.135215 C 18.267914 4.005454 27.93754 0.00173866 38.023327 0.00173866 Z M 38.023327 0.00173866 " stroke="#000000" stroke-width="20.523001" stroke-opacity="1" stroke-miterlimit="4"/></g></g><g clip-path="url(#f9107f7b53)"><g clip-path="url(#c9c3bb26ef)"><path fill="#000000" d="M 710.726562 412.496094 L 899.625 412.496094 L 899.625 559.496094 L 710.726562 559.496094 Z M 710.726562 412.496094 " fill-opacity="1" fill-rule="nonzero"/></g></g><g clip-path="url(#798d1a50f1)"><g clip-path="url(#86c13db6ff)"><path stroke-linecap="butt" transform="matrix(1.11698, 0, 0, 1.117126, 710.73033, 412.495175)" fill="none" stroke-linejoin="miter" d="M 38.02466 0.000822201 L 131.171308 0.000822201 C 141.257095 0.000822201 150.926721 4.008034 158.057414 11.137795 C 165.188107 18.267555 169.195844 27.939413 169.195844 38.02388 L 169.195844 93.554889 C 169.195844 103.639357 165.188107 113.311214 158.057414 120.440975 C 150.926721 127.574232 141.257095 131.577947 131.171308 131.577947 L 38.02466 131.577947 C 27.938873 131.577947 18.26575 127.574232 11.135056 120.440975 C 4.004363 113.311214 0.000123801 103.639357 0.000123801 93.554889 L 0.000123801 38.02388 C 0.000123801 27.939413 4.004363 18.267555 11.135056 11.137795 C 18.26575 4.008034 27.938873 0.000822201 38.02466 0.000822201 Z M 38.02466 0.000822201 " stroke="#000000" stroke-width="20.523001" stroke-opacity="1" stroke-miterlimit="4"/></g></g><path fill="#000000" d="M 613.035156 275.074219 C 597.902344 275.074219 584.257812 271.8125 572.105469 265.28125 C 559.957031 258.757812 550.449219 249.765625 543.578125 238.3125 C 536.703125 226.859375 533.265625 213.980469 533.265625 199.679688 C 533.265625 185.378906 536.703125 172.503906 543.578125 161.046875 C 550.449219 149.59375 559.957031 140.601562 572.105469 134.074219 C 584.257812 127.550781 597.902344 124.28125 613.035156 124.28125 C 628.167969 124.28125 641.765625 127.550781 653.839844 134.074219 C 665.917969 140.601562 675.429688 149.59375 682.367188 161.046875 C 689.3125 172.503906 692.789062 185.378906 692.789062 199.679688 C 692.789062 213.980469 689.3125 226.859375 682.367188 238.3125 C 675.429688 249.765625 665.917969 258.757812 653.839844 265.28125 C 641.765625 271.8125 628.167969 275.074219 613.035156 275.074219 Z M 613.035156 246.332031 C 621.640625 246.332031 629.414062 244.359375 636.351562 240.402344 C 643.292969 236.441406 648.734375 230.921875 652.6875 223.839844 C 656.648438 216.761719 658.628906 208.707031 658.628906 199.679688 C 658.628906 190.652344 656.648438 182.597656 652.6875 175.515625 C 648.734375 168.4375 643.292969 162.921875 636.351562 158.96875 C 629.414062 155.007812 621.640625 153.023438 613.035156 153.023438 C 604.417969 153.023438 596.644531 155.007812 589.707031 158.96875 C 582.765625 162.921875 577.316406 168.4375 573.355469 175.515625 C 569.402344 182.597656 567.429688 190.652344 567.429688 199.679688 C 567.429688 208.707031 569.402344 216.761719 573.355469 223.839844 C 577.316406 230.921875 582.765625 236.441406 589.707031 240.402344 C 596.644531 244.359375 604.417969 246.332031 613.035156 246.332031 Z M 613.035156 246.332031 " fill-opacity="1" fill-rule="nonzero"/><path fill="#ffffff" d="M 852.480469 594.769531 C 840.953125 594.769531 829.808594 593.210938 819.050781 590.089844 C 808.289062 586.964844 799.644531 582.898438 793.121094 577.898438 L 804.582031 552.484375 C 810.824219 557.0625 818.253906 560.746094 826.859375 563.527344 C 835.464844 566.308594 844.070312 567.699219 852.675781 567.699219 C 862.257812 567.699219 869.335938 566.277344 873.914062 563.429688 C 878.5 560.582031 880.796875 556.796875 880.796875 552.078125 C 880.796875 548.605469 879.441406 545.722656 876.738281 543.4375 C 874.03125 541.144531 870.558594 539.304688 866.316406 537.917969 C 862.082031 536.523438 856.355469 534.992188 849.136719 533.324219 C 838.03125 530.691406 828.9375 528.054688 821.859375 525.414062 C 814.78125 522.773438 808.707031 518.542969 803.640625 512.714844 C 798.574219 506.882812 796.042969 499.101562 796.042969 489.382812 C 796.042969 480.917969 798.332031 473.246094 802.910156 466.371094 C 807.488281 459.496094 814.394531 454.046875 823.628906 450.019531 C 832.859375 445.992188 844.140625 443.976562 857.464844 443.976562 C 866.773438 443.976562 875.867188 445.085938 884.746094 447.308594 C 893.628906 449.527344 901.40625 452.722656 908.074219 456.886719 L 897.667969 482.511719 C 884.199219 474.871094 870.734375 471.046875 857.269531 471.046875 C 847.820312 471.046875 840.839844 472.578125 836.328125 475.640625 C 831.820312 478.699219 829.570312 482.71875 829.570312 487.710938 C 829.570312 492.710938 832.171875 496.429688 837.378906 498.863281 C 842.585938 501.289062 850.53125 503.683594 861.21875 506.042969 C 872.320312 508.683594 881.414062 511.324219 888.496094 513.964844 C 895.582031 516.597656 901.660156 520.761719 906.726562 526.453125 C 911.789062 532.148438 914.324219 539.855469 914.324219 549.578125 C 914.324219 557.902344 911.996094 565.503906 907.34375 572.375 C 902.699219 579.253906 895.722656 584.703125 886.414062 588.730469 C 877.117188 592.753906 865.804688 594.769531 852.480469 594.769531 Z M 852.480469 594.769531 " fill-opacity="1" fill-rule="nonzero"/><g fill="#000000" fill-opacity="1"><g transform="translate(438.769833, 689.312409)"><g><path d="M 36.328125 -49.6875 L 48.65625 -42.75 L 18.640625 10.5 L 6.3125 3.5625 Z M 36.328125 -49.6875 "/></g></g></g><g fill="#000000" fill-opacity="1"><g transform="translate(465.885499, 705.585342)"><g><path d="M 82.65625 -30.21875 L 57.875 25.65625 L 47.265625 20.953125 L 34.4375 -25.328125 L 19.390625 8.59375 L 6.625 2.9375 L 31.40625 -52.9375 L 42.109375 -48.1875 L 54.84375 -1.953125 L 69.890625 -35.875 Z M 82.65625 -30.21875 "/></g></g></g><g fill="#000000" fill-opacity="1"><g transform="translate(534.224233, 735.36597)"><g><path d="M 49.65625 -49.078125 C 54.84375 -47.535156 59.09375 -45.332031 62.40625 -42.46875 C 65.726562 -39.613281 67.945312 -36.289062 69.0625 -32.5 C 70.1875 -28.707031 70.101562 -24.632812 68.8125 -20.28125 C 67.539062 -15.96875 65.398438 -12.515625 62.390625 -9.921875 C 59.378906 -7.328125 55.707031 -5.742188 51.375 -5.171875 C 47.050781 -4.597656 42.296875 -5.082031 37.109375 -6.625 L 25.296875 -10.109375 L 20.515625 6.0625 L 6.953125 2.046875 L 24.28125 -56.578125 Z M 39.625 -17.890625 C 43.695312 -16.679688 47.050781 -16.644531 49.6875 -17.78125 C 52.332031 -18.914062 54.128906 -21.101562 55.078125 -24.34375 C 56.054688 -27.625 55.742188 -30.457031 54.140625 -32.84375 C 52.546875 -35.238281 49.710938 -37.039062 45.640625 -38.25 L 34.578125 -41.515625 L 28.5625 -21.15625 Z M 39.625 -17.890625 "/></g></g></g><g fill="#000000" fill-opacity="1"><g transform="translate(599.236954, 754.339856)"><g><path d="M 45.59375 7.515625 L 36.71875 -11.203125 L 36.015625 -11.3125 L 23.875 -13.3125 L 21.109375 3.484375 L 7.15625 1.1875 L 17.109375 -59.125 L 43.203125 -54.828125 C 48.546875 -53.941406 53.035156 -52.285156 56.671875 -49.859375 C 60.316406 -47.429688 62.929688 -44.40625 64.515625 -40.78125 C 66.109375 -37.15625 66.535156 -33.101562 65.796875 -28.625 C 65.054688 -24.144531 63.335938 -20.457031 60.640625 -17.5625 C 57.953125 -14.675781 54.488281 -12.695312 50.25 -11.625 L 60.578125 10 Z M 51.671875 -30.953125 C 52.222656 -34.328125 51.554688 -37.101562 49.671875 -39.28125 C 47.785156 -41.46875 44.75 -42.90625 40.5625 -43.59375 L 29.1875 -45.46875 L 25.71875 -24.4375 L 37.09375 -22.5625 C 41.28125 -21.875 44.617188 -22.265625 47.109375 -23.734375 C 49.597656 -25.210938 51.117188 -27.617188 51.671875 -30.953125 Z M 51.671875 -30.953125 "/></g></g></g><g fill="#000000" fill-opacity="1"><g transform="translate(666.628748, 765.501381)"><g><path d="M 36.8125 2.15625 C 30.457031 1.96875 24.773438 0.429688 19.765625 -2.453125 C 14.765625 -5.347656 10.894531 -9.234375 8.15625 -14.109375 C 5.425781 -18.992188 4.148438 -24.4375 4.328125 -30.4375 C 4.503906 -36.4375 6.101562 -41.789062 9.125 -46.5 C 12.15625 -51.21875 16.253906 -54.863281 21.421875 -57.4375 C 26.597656 -60.019531 32.363281 -61.21875 38.71875 -61.03125 C 45.0625 -60.832031 50.71875 -59.289062 55.6875 -56.40625 C 60.664062 -53.519531 64.535156 -49.632812 67.296875 -44.75 C 70.066406 -39.863281 71.363281 -34.421875 71.1875 -28.421875 C 71.007812 -22.421875 69.390625 -17.066406 66.328125 -12.359375 C 63.273438 -7.648438 59.175781 -4.003906 54.03125 -1.421875 C 48.894531 1.160156 43.15625 2.351562 36.8125 2.15625 Z M 37.171875 -9.890625 C 40.773438 -9.773438 44.054688 -10.503906 47.015625 -12.078125 C 49.984375 -13.648438 52.335938 -15.894531 54.078125 -18.8125 C 55.828125 -21.726562 56.757812 -25.078125 56.875 -28.859375 C 56.988281 -32.640625 56.257812 -36.039062 54.6875 -39.0625 C 53.125 -42.082031 50.910156 -44.460938 48.046875 -46.203125 C 45.191406 -47.953125 41.960938 -48.882812 38.359375 -49 C 34.742188 -49.101562 31.453125 -48.367188 28.484375 -46.796875 C 25.523438 -45.234375 23.171875 -42.988281 21.421875 -40.0625 C 19.679688 -37.144531 18.753906 -33.796875 18.640625 -30.015625 C 18.523438 -26.234375 19.25 -22.832031 20.8125 -19.8125 C 22.382812 -16.800781 24.597656 -14.421875 27.453125 -12.671875 C 30.316406 -10.921875 33.554688 -9.992188 37.171875 -9.890625 Z M 37.171875 -9.890625 "/></g></g></g><g fill="#000000" fill-opacity="1"><g transform="translate(744.391686, 767.257429)"><g><path d="M 36.421875 -2.703125 C 30.222656 -2.066406 24.476562 -2.835938 19.1875 -5.015625 C 13.894531 -7.191406 9.570312 -10.519531 6.21875 -15 C 2.863281 -19.476562 0.875 -24.726562 0.25 -30.75 C -0.375 -36.769531 0.5 -42.316406 2.875 -47.390625 C 5.25 -52.472656 8.800781 -56.617188 13.53125 -59.828125 C 18.257812 -63.035156 23.753906 -64.960938 30.015625 -65.609375 C 35.273438 -66.148438 40.128906 -65.710938 44.578125 -64.296875 C 49.035156 -62.890625 52.890625 -60.597656 56.140625 -57.421875 L 47.96875 -48.140625 C 43.363281 -52.460938 38.023438 -54.3125 31.953125 -53.6875 C 28.179688 -53.300781 24.898438 -52.128906 22.109375 -50.171875 C 19.328125 -48.222656 17.265625 -45.6875 15.921875 -42.5625 C 14.585938 -39.4375 14.113281 -35.992188 14.5 -32.234375 C 14.882812 -28.472656 16.050781 -25.195312 18 -22.40625 C 19.957031 -19.625 22.5 -17.554688 25.625 -16.203125 C 28.75 -14.859375 32.195312 -14.378906 35.96875 -14.765625 C 42.039062 -15.390625 46.882812 -18.320312 50.5 -23.5625 L 60.390625 -16.171875 C 57.867188 -12.328125 54.5625 -9.253906 50.46875 -6.953125 C 46.375 -4.660156 41.691406 -3.242188 36.421875 -2.703125 Z M 36.421875 -2.703125 "/></g></g></g><g fill="#000000" fill-opacity="1"><g transform="translate(812.166211, 760.308216)"><g><path d="M 36.09375 -7.609375 C 29.914062 -6.117188 24.03125 -6.101562 18.4375 -7.5625 C 12.84375 -9.03125 8.082031 -11.765625 4.15625 -15.765625 C 0.226562 -19.765625 -2.429688 -24.679688 -3.828125 -30.515625 C -5.234375 -36.347656 -5.097656 -41.929688 -3.421875 -47.265625 C -1.742188 -52.609375 1.25 -57.207031 5.5625 -61.0625 C 9.882812 -64.914062 15.132812 -67.585938 21.3125 -69.078125 C 27.476562 -70.554688 33.335938 -70.554688 38.890625 -69.078125 C 44.453125 -67.597656 49.207031 -64.863281 53.15625 -60.875 C 57.113281 -56.894531 59.796875 -51.988281 61.203125 -46.15625 C 62.597656 -40.320312 62.441406 -34.726562 60.734375 -29.375 C 59.035156 -24.019531 56.046875 -19.421875 51.765625 -15.578125 C 47.484375 -11.742188 42.257812 -9.085938 36.09375 -7.609375 Z M 33.265625 -19.3125 C 36.765625 -20.144531 39.738281 -21.710938 42.1875 -24.015625 C 44.632812 -26.316406 46.316406 -29.101562 47.234375 -32.375 C 48.160156 -35.65625 48.179688 -39.132812 47.296875 -42.8125 C 46.410156 -46.488281 44.8125 -49.578125 42.5 -52.078125 C 40.1875 -54.578125 37.421875 -56.289062 34.203125 -57.21875 C 30.984375 -58.144531 27.625 -58.191406 24.125 -57.359375 C 20.601562 -56.503906 17.617188 -54.929688 15.171875 -52.640625 C 12.734375 -50.359375 11.054688 -47.578125 10.140625 -44.296875 C 9.234375 -41.015625 9.222656 -37.535156 10.109375 -33.859375 C 10.992188 -30.179688 12.585938 -27.09375 14.890625 -24.59375 C 17.191406 -22.101562 19.945312 -20.382812 23.15625 -19.4375 C 26.375 -18.5 29.742188 -18.457031 33.265625 -19.3125 Z M 33.265625 -19.3125 "/></g></g></g><g fill="#000000" fill-opacity="1"><g transform="translate(887.762895, 741.598638)"><g><path d="M 39.484375 -29.46875 L 13.046875 -19.15625 L 12.765625 -4.984375 L -0.734375 0.28125 L 2.421875 -66.5625 L 15.453125 -71.640625 L 63.125 -24.625 L 49.296875 -19.234375 Z M 31.4375 -37.859375 L 13.90625 -56.140625 L 13.375 -30.828125 Z M 31.4375 -37.859375 "/></g></g></g><g fill="#000000" fill-opacity="1"><g transform="translate(953.182938, 715.452534)"><g><path d="M -5.71875 -53.140625 L -23 -43.953125 L -28.40625 -54.125 L 18.640625 -79.140625 L 24.046875 -68.96875 L 6.78125 -59.796875 L 30.078125 -16 L 17.578125 -9.34375 Z M -5.71875 -53.140625 "/></g></g></g></svg>