<svg width="24" height="24" viewBox="0 0 24 24" fill="none" xmlns="http://www.w3.org/2000/svg">
<path fill-rule="evenodd" clip-rule="evenodd" d="M12.5914 1.1936L12 2L11.4086 1.1936C11.7606 0.935468 12.2394 0.935468 12.5914 1.1936ZM12 3.27838C11.8523 3.40181 11.6814 3.5482 11.4925 3.71616C10.8167 4.31686 9.91633 5.18745 9.01822 6.26518C7.45646 8.1393 5.98171 10.5433 5.59694 13.1827C6.00375 13.0963 6.48067 13.0103 7.00097 12.9452C8.56036 12.7503 10.6784 12.7211 12.4472 13.6056C13.6784 14.2211 15.3104 14.2503 16.751 14.0702C17.4313 13.9852 18.0314 13.8584 18.4684 13.7505C18.228 10.8886 16.6548 8.27286 14.9818 6.26518C14.0837 5.18745 13.1833 4.31686 12.5075 3.71616C12.3186 3.5482 12.1477 3.40181 12 3.27838ZM18.3648 15.8253C17.9664 15.9091 17.5031 15.9918 16.999 16.0548C15.4396 16.2497 13.3216 16.2789 11.5528 15.3944C10.3216 14.7789 8.68964 14.7497 7.24903 14.9298C6.57425 15.0141 5.97842 15.1395 5.54244 15.2468C5.91285 18.4849 8.6627 21 12 21C15.1357 21 17.7528 18.7796 18.3648 15.8253ZM11.4081 1.19401C11.4084 1.19379 11.4086 1.19359 12 2C12.5914 1.19359 12.5916 1.19379 12.5919 1.19401L12.5927 1.19455L12.5947 1.19601L12.6007 1.20046L12.6207 1.21537C12.6375 1.22798 12.6613 1.2459 12.6915 1.26902C12.752 1.31524 12.8384 1.38227 12.947 1.46913C13.164 1.64278 13.4704 1.89611 13.8362 2.22134C14.5667 2.87064 15.5413 3.81255 16.5182 4.98482C18.4502 7.30313 20.5 10.6534 20.5 14.5C20.5 19.1944 16.6944 23 12 23C7.30557 23 3.5 19.1944 3.5 14.5C3.5 10.6534 5.54985 7.30313 7.48178 4.98482C8.45867 3.81255 9.4333 2.87064 10.1638 2.22134C10.5296 1.89611 10.836 1.64278 11.053 1.46913C11.1616 1.38227 11.248 1.31524 11.3085 1.26902C11.3387 1.2459 11.3625 1.22798 11.3793 1.21537L11.3993 1.20046L11.4053 1.19601L11.4073 1.19455L11.4081 1.19401Z" fill="#FFB600"/>
</svg>
